<?xml version="1.0" encoding="utf-8" ?><svg xmlns="http://www.w3.org/2000/svg" xmlns:xlink="http://www.w3.org/1999/xlink" width="1024" height="1024" viewBox="0 0 1024 1024"><path fill="#FEFEFE" d="M0 0L1024 0L1024 1024L0 1024L0 0Z"/><defs><linearGradient id="gradient_0" gradientUnits="userSpaceOnUse" x1="484.33066" y1="940.28296" x2="562.99249" y2="87.424034"><stop offset="0" stop-color="#4D0714"/><stop offset="1" stop-color="#AD3F0F"/></linearGradient></defs><path fill="url(#gradient_0)" d="M268.823 102.945C273.874 102.226 283.243 102.467 288.585 102.479L319.814 102.559L422.951 102.549L642.934 102.777L711.43 102.784C733.903 102.717 769.624 101.012 790.828 107.754C859.532 124.827 910.873 183.939 920.626 253.138C922.427 265.916 922.036 279.025 922.037 291.895L922.003 341.313L921.932 509.799L921.944 520.051L921.91 675.27L921.96 725.893C921.987 747.632 922.883 764.492 917.742 786.04C909.967 818.417 893.471 848.046 870.045 871.709C851.111 890.503 829.334 903.546 804.262 912.075C802.281 912.749 798.055 914.039 796.498 915.054C794.277 918.651 768.036 920.408 765.486 922.413C775.762 946.136 669.301 953.914 654.983 955.296C605.553 960.203 555.892 962.411 506.222 961.911C504.096 961.883 501.17 960.95 499.597 961.063C492.182 961.592 485.593 961.166 478.291 960.69C469.359 960.673 460.393 960.783 451.461 960.883C448.054 960.922 444.383 960.024 441.347 960.132C419.04 960.925 397.289 958.092 375.184 955.912C346.858 953.119 319.097 951.791 292.102 941.786C273.582 934.923 280.362 926.323 277.134 922.708C272.729 921.613 267.145 922.33 262.735 921.838C258.231 921.335 252.083 920.71 247.776 919.898L247.712 919.156C210.098 911.615 181.488 897.782 153.62 870.707C132.701 850.382 118.829 827.752 110.223 799.764C101.614 771.763 102.55 749.398 102.549 720.474L102.561 666.66L102.486 522.853L102.532 507.104C101.555 491.054 102.459 472.475 102.518 456.234C102.463 426.109 102.561 395.985 102.812 365.861L102.69 307.171C102.555 280.319 101.23 261.429 107.68 234.993C114.546 205.871 129.039 179.102 149.671 157.434C180.475 125.074 223.934 104.143 268.823 102.945Z"/><defs><linearGradient id="gradient_1" gradientUnits="userSpaceOnUse" x1="631.43079" y1="477.96527" x2="528.7215" y2="101.97606"><stop offset="0" stop-color="#A0370D"/><stop offset="1" stop-color="#D26E1E"/></linearGradient></defs><path fill="url(#gradient_1)" d="M268.823 102.945C273.874 102.226 283.243 102.467 288.585 102.479L319.814 102.559L422.951 102.549L642.934 102.777L711.43 102.784C733.903 102.717 769.624 101.012 790.828 107.754L790.159 108.323L791.25 108.751L790.709 109.483C790.366 109.336 790.023 109.189 789.68 109.041C789.353 109.707 789.043 110.361 788.692 111.014L786.449 110.916C785.984 112.106 786.252 112.809 786.444 114.103C785.56 115.184 785.049 115.397 783.856 115.754C780.926 116.63 776.385 120.687 775.646 123.829C773.732 131.975 771.023 138.735 767.078 146.144C766.322 147.564 766.625 150.514 765.878 151.948C758.531 160.401 746.797 166.579 745.129 178.711C744.679 181.985 742.52 182.256 742.008 184.928C757.289 193.742 768.2 202.885 782.013 213.32C833.225 252.008 872.74 303.555 900.277 361.259C901.691 364.22 903.389 366.659 904.526 369.893L904.135 370.093L903.752 369.27C899.534 360.39 875.051 312.987 869.922 310.407L868.678 310.604C867.072 313.924 872.269 318.595 874.036 321.371L873.58 321.879C870.691 321.887 862.987 318.864 860.243 317.635C861.166 324.415 879.436 324.3 879.871 330.472C880.676 341.896 869.297 388.74 862.589 395.558C861.577 399.695 859.285 403.21 857.174 406.901C850.104 419.26 841.715 429.646 829.484 437.233C827.223 438.635 826.464 439.065 823.851 438.766C819.694 438.292 812.278 438.529 808.545 436.913L808.73 435.623L808.874 436.989L809.121 437.044L809.548 435.401C813.26 434.817 813.014 431.772 816.273 430.986C817.519 428.555 819.701 427.949 819.828 426.256L818.325 427.457C817.394 426.844 817.916 427.112 816.74 426.695C815.749 428.165 815.228 429.117 813.462 429.576C806.241 437.971 780.725 452.166 769.871 452.167C759.365 454.2 748.203 458.268 737.816 460.955C736.918 458.038 733.117 447.522 732.949 445.512C732.461 442.593 727.542 430.492 726.167 427.266L725.719 427.571C724.626 425.641 721.146 419.528 721.221 417.734C718.771 409.734 706.297 392.654 701.112 385.628C699.346 384.477 691.699 374.316 690.372 372.124C688.741 370.247 687.155 368.332 685.615 366.38L686.205 365.497C683.756 363.93 678.562 357.414 673.901 354.262L673.356 354.676C672.206 353.468 670.714 352.138 669.48 350.975L669.88 350.734C668.756 349.444 668.762 349.425 667.994 347.888C665.676 347.706 659.031 339.07 654.582 338.621C653.65 338.579 654.112 338.742 653.309 337.883C645.974 332.233 630.858 322.445 622.419 318.68C621.139 318.92 607.118 312.432 606.409 311.084C596.696 306.437 585.13 302.875 574.895 299.588C573.969 299.209 571.985 298.956 570.937 298.818C569.471 298.784 569.495 298.876 568.208 298.233C563.121 298.196 559.75 295.453 552.584 296.137C557.339 303.522 563.054 310.939 568.339 318.015C563.836 316.141 556.731 314.066 553.404 311.107C552.217 312.411 551.89 315.775 551.603 317.605C552.843 322.094 555.682 320.835 554.68 326.017C551.546 322.507 546.647 315.548 543.82 311.654C532.091 295.558 521.453 278.695 511.977 261.177C505.008 273.49 490.791 297.731 482.15 308.399C482.891 304.852 485.172 303.667 485.714 301.167C481.752 301.556 482.75 306.304 478.954 306.512C477.665 306.582 476.781 306.699 475.804 307.581C475.409 308.576 475.031 309.456 474.446 310.354L474.02 309.935L474.952 307.592C472.849 306.18 469.481 306.493 467.035 306.713C465.182 307.805 463.044 309.88 461.589 311.473L460.788 311.579C461.574 309.846 470.185 298.53 471.919 296.117L469.691 295.17C467.425 296.351 462.801 297.067 459.976 297.903C451.911 300.291 436.699 304.352 429.555 308.425C428.708 309.505 418.342 314.029 416.512 314.605C415.136 314.981 414.441 315.055 413.315 315.953C412.46 317.537 397.341 324.964 394.403 326.486C389.434 329.06 384.347 332.037 379.454 335.126C378.134 335.862 378.138 335.749 377.034 336.743C375.699 338.397 369.012 343.276 367.047 344.403C362.357 347.839 354.948 353.079 350.695 356.937C347.68 359.546 341.478 365.29 338.716 367.299L338.219 366.911C336.51 369.229 337.948 369.296 335.83 370.34L334.844 370.041L334.253 370.5L334.98 372.115C334.38 373.107 324.256 384.747 323.928 384.882L323.799 384.832C320.599 388.333 313.424 399.3 310.305 403.805C308.732 407.792 305.883 412.592 303.826 416.37C275.806 467.839 272.511 533.271 290.615 588.498C291.38 590.832 292.602 593.97 293.078 596.412L292.244 595.828C290.761 591.458 289.049 586.751 287.663 582.385L287.474 581.771L286.138 581.456C286.17 575.473 283.891 570.001 283.074 563.889C275.087 565.38 252.004 568.804 245.707 572.053C244.635 571.875 245.06 572.132 244.406 571.325L245.983 569.968C245.104 569.385 238.14 570.703 236.575 570.942C233.853 571.28 230.424 571.175 228.164 571.554C229.642 571.935 229.536 571.6 230.209 572.434C231.151 571.758 215.913 577.759 215.678 577.837C209.304 579.957 197.922 583.097 191.223 581.725C186.45 580.749 179.969 579.559 175.11 578.343C152.175 570.21 133.632 555.467 117.41 537.685C113.792 533.718 106.792 524.802 102.486 522.853L102.532 507.104C101.555 491.054 102.459 472.475 102.518 456.234C102.463 426.109 102.561 395.985 102.812 365.861L102.69 307.171C102.555 280.319 101.23 261.429 107.68 234.993C114.546 205.871 129.039 179.102 149.671 157.434C180.475 125.074 223.934 104.143 268.823 102.945Z"/><path fill="#94300E" d="M102.532 507.104C101.555 491.054 102.459 472.475 102.518 456.234C102.463 426.109 102.561 395.985 102.812 365.861L102.69 307.171C102.555 280.319 101.23 261.429 107.68 234.993C114.546 205.871 129.039 179.102 149.671 157.434C180.475 125.074 223.934 104.143 268.823 102.945L269.368 102.982C276.919 103.448 287.6 103.136 295.402 103.214L344.316 103.749C350.819 103.776 380.805 103.101 384.699 106.343C385.225 107.712 385.941 110.667 387.308 110.825C393.151 111.499 393.121 114.263 396.191 118.953C395.72 120.509 395.369 121.505 394.778 123.022C396.484 124.715 398.981 123.941 400.26 125.507C398.225 129.627 393.421 132.974 394.044 136.008C395.511 136.491 395.294 136.334 396.922 136.227L396.873 136.719C392.862 138.521 387.356 139.863 383.048 141.258C352.651 151.102 323.367 163.417 296.044 180.112C293.773 181.499 282.27 187.669 281.037 189.227C279.189 190.373 267.121 197.829 266.583 198.864C269.314 198.671 268.984 196.7 271.07 196.852C271.078 197.804 271.3 200.902 270.97 201.6C276.41 199.931 294.125 186.07 301.317 183.926C302.719 184.125 304.031 184.159 305.515 184.377C304.708 186.957 302.714 188.155 303.162 189.763C304.479 188.265 306.398 184.113 307.369 182.153C316.606 184.621 327.359 187.153 336.502 190.592C373.324 204.443 408.443 231.64 430.318 264.306C436.726 273.875 440.141 290.364 441.497 301.732C442.745 299.692 441 298.958 442.286 297.389C443.619 298.754 442.943 299.604 444.039 302C445.974 300.356 448.112 300.583 450.367 299.265C454.333 298.423 467.056 293.757 469.691 295.17C467.425 296.351 462.801 297.067 459.976 297.903C451.911 300.291 436.699 304.352 429.555 308.425C428.708 309.505 418.342 314.029 416.512 314.605C415.136 314.981 414.441 315.055 413.315 315.953C412.46 317.537 397.341 324.964 394.403 326.486C389.434 329.06 384.347 332.037 379.454 335.126C378.134 335.862 378.138 335.749 377.034 336.743C375.699 338.397 369.012 343.276 367.047 344.403C362.357 347.839 354.948 353.079 350.695 356.937C347.68 359.546 341.478 365.29 338.716 367.299L338.219 366.911C336.51 369.229 337.948 369.296 335.83 370.34L334.844 370.041L334.253 370.5L334.98 372.115C334.38 373.107 324.256 384.747 323.928 384.882L323.799 384.832C320.599 388.333 313.424 399.3 310.305 403.805C308.732 407.792 305.883 412.592 303.826 416.37C275.806 467.839 272.511 533.271 290.615 588.498C291.38 590.832 292.602 593.97 293.078 596.412L292.244 595.828C290.761 591.458 289.049 586.751 287.663 582.385L287.474 581.771L286.138 581.456C286.17 575.473 283.891 570.001 283.074 563.889C275.087 565.38 252.004 568.804 245.707 572.053C244.635 571.875 245.06 572.132 244.406 571.325L245.983 569.968C245.104 569.385 238.14 570.703 236.575 570.942C233.853 571.28 230.424 571.175 228.164 571.554C229.642 571.935 229.536 571.6 230.209 572.434C231.151 571.758 215.913 577.759 215.678 577.837C209.304 579.957 197.922 583.097 191.223 581.725C186.45 580.749 179.969 579.559 175.11 578.343C152.175 570.21 133.632 555.467 117.41 537.685C113.792 533.718 106.792 524.802 102.486 522.853L102.532 507.104Z"/><defs><linearGradient id="gradient_2" gradientUnits="userSpaceOnUse" x1="157.40898" y1="570.11908" x2="285.79019" y2="465.30511"><stop offset="0" stop-color="#6C160F"/><stop offset="1" stop-color="#8F2A0D"/></linearGradient></defs><path fill="url(#gradient_2)" d="M296.037 429.428C269.205 421.737 237.922 404.274 220.081 382.611C218.233 380.368 203.534 361.776 203.523 361.01C205.525 360.849 206.708 361.152 208.709 361.479L207.739 362.184C224.054 363.482 242.371 365.374 258.057 370.118C275.516 375.398 299.117 387.708 309.825 403.079L310.305 403.805C308.732 407.792 305.883 412.592 303.826 416.37C275.806 467.839 272.511 533.271 290.615 588.498C291.38 590.832 292.602 593.97 293.078 596.412L292.244 595.828C290.761 591.458 289.049 586.751 287.663 582.385L287.474 581.771L286.138 581.456C286.17 575.473 283.891 570.001 283.074 563.889C275.087 565.38 252.004 568.804 245.707 572.053C244.635 571.875 245.06 572.132 244.406 571.325L245.983 569.968C245.104 569.385 238.14 570.703 236.575 570.942C235.656 570.811 234.059 569.889 232.796 569.531C211.846 572.78 180.047 561.341 162.461 550.399C155.085 545.809 113.482 519.917 110.368 514.279C113.018 510.643 135.953 496.638 141.323 493.065C164.445 477.682 189.069 458.192 217.498 455.091C226.192 454.142 235.653 455.155 244.365 455.909C255.857 456.296 273.386 460.331 285.152 462.187L285.724 460.795C285.874 456.541 289.833 448.188 289.927 443.586L289.826 443.119C291.494 442.141 295.059 431.918 296.037 429.428Z"/><path fill="#94300E" d="M250.959 406.842C235.243 400.364 220.364 381.205 210.078 367.902C209.229 366.805 206.37 363.298 206.201 362.163L207.739 362.184C224.054 363.482 242.371 365.374 258.057 370.118C275.516 375.398 299.117 387.708 309.825 403.079C304.818 410.67 300.693 420.149 296.739 428.333C273.751 422.5 256.725 411.926 241.011 394.45C237.459 390.501 230.897 383.473 228.588 378.5C228.65 376.881 228.701 375.548 228.741 374.504C228.239 375.247 227.417 376.134 227.523 376.851C228.829 385.672 245.119 399.614 250.546 406.322L250.959 406.842Z"/><path fill="#94300E" d="M158.188 516.094C167.987 515.855 180.409 511.925 189.506 508.608C225.058 495.644 241.884 489.872 279.155 498.066C278.886 502.967 278.349 509.489 278.376 514.285C259.98 515.785 244.879 514.675 227.124 514.789C228.295 515.769 231.718 516.074 233.41 516.322C247.254 518.354 264.629 518.609 278.405 516.047C278.461 519.189 278.494 528.269 278.891 530.965C272.741 530.974 267.139 532.231 261.105 532.591C239.153 533.899 218.035 525.975 196.753 522.188C183.68 519.861 171.201 519.041 158.188 516.094Z"/><path fill="#AF4511" d="M296.037 429.428C269.205 421.737 237.922 404.274 220.081 382.611C218.233 380.368 203.534 361.776 203.523 361.01C205.525 360.849 206.708 361.152 208.709 361.479L207.739 362.184L206.201 362.163C206.37 363.298 209.229 366.805 210.078 367.902C220.364 381.205 235.243 400.364 250.959 406.842L250.546 406.322C245.119 399.614 228.829 385.672 227.523 376.851C227.417 376.134 228.239 375.247 228.741 374.504C228.701 375.548 228.65 376.881 228.588 378.5C230.897 383.473 237.459 390.501 241.011 394.45C256.725 411.926 273.751 422.5 296.739 428.333C300.693 420.149 304.818 410.67 309.825 403.079L310.305 403.805C308.732 407.792 305.883 412.592 303.826 416.37C275.806 467.839 272.511 533.271 290.615 588.498C291.38 590.832 292.602 593.97 293.078 596.412L292.244 595.828C290.761 591.458 289.049 586.751 287.663 582.385L287.474 581.771L286.138 581.456C286.17 575.473 283.891 570.001 283.074 563.889C275.087 565.38 252.004 568.804 245.707 572.053C244.635 571.875 245.06 572.132 244.406 571.325L245.983 569.968C245.104 569.385 238.14 570.703 236.575 570.942C235.656 570.811 234.059 569.889 232.796 569.531C242.522 569.647 272.473 564.411 282.793 562.818C282.09 556.442 280.914 550.236 280.296 543.734C255.33 549.542 228.672 549.639 205.208 539.315C195.267 534.94 184.936 530.786 174.684 526.893C164.293 522.946 152.538 520.644 142.216 516.622C138.376 515.126 139.226 516.238 136.009 515.357C136.587 514.943 137.035 514.423 137.54 514.571C144.072 516.481 151.627 519.223 158.093 521.1C165.454 523.238 173.379 525.096 180.327 527.857C198.57 535.104 216.335 544.388 236.265 545.801C251.483 546.879 265.211 544.756 280.185 542.581L278.891 530.965C278.494 528.269 278.461 519.189 278.405 516.047C264.629 518.609 247.254 518.354 233.41 516.322C231.718 516.074 228.295 515.769 227.124 514.789C244.879 514.675 259.98 515.785 278.376 514.285C278.349 509.489 278.886 502.967 279.155 498.066C241.884 489.872 225.058 495.644 189.506 508.608C180.409 511.925 167.987 515.855 158.188 516.094L156.429 515.666L156.577 515.422C178.932 513.187 183.543 509.664 203.654 501.518C229.907 490.885 252.095 490.658 279.301 495.777C280.471 487.07 281.992 470.482 285.152 462.187L285.724 460.795C285.874 456.541 289.833 448.188 289.927 443.586L289.826 443.119C291.494 442.141 295.059 431.918 296.037 429.428Z"/><path fill="#AF4511" d="M311.438 195.005C315.142 196.075 321.339 200.387 325.091 202.431C355.016 218.734 403.19 251.31 419.774 281.425C424.397 289.731 427.653 298.726 429.417 308.067C429.463 308.186 429.509 308.306 429.555 308.425C428.708 309.505 418.342 314.029 416.512 314.605C415.136 314.981 414.441 315.055 413.315 315.953C412.46 317.537 397.341 324.964 394.403 326.486C389.434 329.06 384.347 332.037 379.454 335.126C378.134 335.862 378.138 335.749 377.034 336.743C375.699 338.397 369.012 343.276 367.047 344.403C362.357 347.839 354.948 353.079 350.695 356.937C347.68 359.546 341.478 365.29 338.716 367.299C338.499 365.689 338.36 366.456 339.351 364.968L339.153 364.362L337.325 363.954C336.445 362.022 336.004 360.731 334.061 359.935L333.555 361.611L332.835 361.854C326.28 354.047 318.943 344.785 312.816 336.689C312.057 335.687 308.208 327.07 307.329 325.195C291.359 291.149 297.555 255.53 306.134 220.636C308.13 212.517 309.681 203.406 311.438 195.005Z"/><path fill="#C35613" d="M350.695 356.937L351.54 355.227C351.377 352.193 343.407 344.311 341.236 340.846C337.105 334.251 333.412 328.65 330.244 321.417C326.538 312.731 324.058 303.571 322.878 294.202C322.262 289.019 321.944 283.805 321.927 278.585C321.805 263.647 322.827 249.366 322.996 234.507C323.04 230.657 321.739 220.644 322.795 217.962C325.341 218.45 324.207 224.768 324.182 227.174L323.583 261.43C323.164 290.824 325.043 313.22 342.032 338.694C345.638 344.101 349.28 348.56 353.186 353.718C356.386 350.635 360.956 347.121 364.767 344.704C364.995 344.124 365.224 343.544 365.452 342.964L367.047 344.403C362.357 347.839 354.948 353.079 350.695 356.937Z"/><path fill="#C35613" d="M413.315 315.953C412.565 316.157 413.014 316.09 411.955 316.012C411.723 312.944 410.903 311.598 409.974 308.827C399.816 278.535 371.148 261.909 347.799 242.769C345.121 240.575 343.357 239.358 341.428 236.26C367.038 256.498 403.379 278.426 413.26 311.025C414.126 313.881 414.113 313.54 416.512 314.605C415.136 314.981 414.441 315.055 413.315 315.953Z"/><path fill="#C35613" d="M377.034 336.743C377.159 336.088 377.421 335.251 377.071 334.602C372.162 325.51 366.625 316.777 362.373 307.334C357.665 296.876 355.437 285.532 353.425 274.305C356.78 279.985 356 286.661 357.87 291.861C361.78 302.735 371.361 327.27 379.454 335.126C378.134 335.862 378.138 335.749 377.034 336.743Z"/><defs><linearGradient id="gradient_3" gradientUnits="userSpaceOnUse" x1="196.41856" y1="416.95169" x2="299.11383" y2="329.98517"><stop offset="0" stop-color="#86250E"/><stop offset="1" stop-color="#A3390E"/></linearGradient></defs><path fill="url(#gradient_3)" d="M244.365 455.909C245.89 455.535 247.422 455.194 248.961 454.886C248.088 453.359 246.503 455.852 243.486 453.293C243.794 453.366 244.524 453.251 244.888 453.217L244.988 452.479C239.722 448.459 228.92 447.177 223.078 444.137C216.807 440.875 204.689 433.224 199.897 427.971C181.216 407.497 171.762 380.636 162.358 355.074C160.127 349.007 154.205 335.453 153.381 329.508C153.731 329.113 154.164 328.706 154.736 328.64C201.856 323.209 257.145 315.415 300.473 339.679C305.255 342.356 320.576 352.597 321.835 357.525C324.942 360.665 331.809 367.318 334.253 370.5L334.98 372.115C334.38 373.107 324.256 384.747 323.928 384.882L323.799 384.832C320.599 388.333 313.424 399.3 310.305 403.805L309.825 403.079C299.117 387.708 275.516 375.398 258.057 370.118C242.371 365.374 224.054 363.482 207.739 362.184L208.709 361.479C206.708 361.152 205.525 360.849 203.523 361.01C203.534 361.776 218.233 380.368 220.081 382.611C237.922 404.274 269.205 421.737 296.037 429.428C295.059 431.918 291.494 442.141 289.826 443.119L289.927 443.586C289.833 448.188 285.874 456.541 285.724 460.795L285.152 462.187C273.386 460.331 255.857 456.296 244.365 455.909Z"/><path fill="#94300E" d="M289.927 443.586C289.132 443.675 289.008 443.763 288.327 443.633C272.376 440.606 261.719 437.44 247.792 429.823C216.96 412.958 205.173 386.797 186.871 358.713C183.978 354.273 179.877 350.311 176.843 346.007L177.311 345.319C178.494 345.781 179.053 346.391 180.004 347.218C184.485 347.215 196.682 348.74 200.321 347.627C197.102 347.267 184.543 347.076 183.236 346.122C191.504 345.645 199.603 346.972 207.807 347C219.004 347.037 230.267 347.615 241.412 348.322C271.446 350.226 301.964 361.309 322.052 384.525C322.202 384.698 323.565 384.822 323.799 384.832C320.599 388.333 313.424 399.3 310.305 403.805L309.825 403.079C299.117 387.708 275.516 375.398 258.057 370.118C242.371 365.374 224.054 363.482 207.739 362.184L208.709 361.479C206.708 361.152 205.525 360.849 203.523 361.01C203.534 361.776 218.233 380.368 220.081 382.611C237.922 404.274 269.205 421.737 296.037 429.428C295.059 431.918 291.494 442.141 289.826 443.119L289.927 443.586Z"/><path fill="#C35613" d="M200.321 347.627C197.102 347.267 184.543 347.076 183.236 346.122C191.504 345.645 199.603 346.972 207.807 347C219.004 347.037 230.267 347.615 241.412 348.322C271.446 350.226 301.964 361.309 322.052 384.525C322.202 384.698 323.565 384.822 323.799 384.832C320.599 388.333 313.424 399.3 310.305 403.805L309.825 403.079C299.117 387.708 275.516 375.398 258.057 370.118C242.371 365.374 224.054 363.482 207.739 362.184L208.709 361.479C214.552 361.486 222.111 362.448 228.006 362.897C263.249 365.582 285.706 376.365 311.771 399.624C315.046 395.22 318.207 390.732 321.252 386.166L315.206 380.525C285.504 353.062 248.167 347.728 209.495 347.882C206.45 347.895 203.35 347.509 200.321 347.627Z"/><path fill="#AF4511" d="M244.365 455.909C245.89 455.535 247.422 455.194 248.961 454.886C248.088 453.359 246.503 455.852 243.486 453.293C243.794 453.366 244.524 453.251 244.888 453.217L244.988 452.479C239.722 448.459 228.92 447.177 223.078 444.137C216.807 440.875 204.689 433.224 199.897 427.971C181.216 407.497 171.762 380.636 162.358 355.074C160.127 349.007 154.205 335.453 153.381 329.508C153.731 329.113 154.164 328.706 154.736 328.64C201.856 323.209 257.145 315.415 300.473 339.679C305.255 342.356 320.576 352.597 321.835 357.525C318.694 354.942 314.699 351.544 311.368 349.372C269.669 322.173 216.345 325.366 169.018 329.984C165.171 330.333 161.329 330.746 157.496 331.225C174.21 375.868 185.464 425.673 233.136 446.21C251.077 453.939 266.566 458.217 285.724 460.795L285.152 462.187C273.386 460.331 255.857 456.296 244.365 455.909Z"/><defs><linearGradient id="gradient_4" gradientUnits="userSpaceOnUse" x1="153.37994" y1="307.77902" x2="319.84637" y2="234.47667"><stop offset="0" stop-color="#8F2D0D"/><stop offset="1" stop-color="#AF440F"/></linearGradient></defs><path fill="url(#gradient_4)" d="M301.317 183.926C300.453 188.101 293.083 200.521 291.014 205.256C282.995 223.605 276.992 244.085 274.899 264.022C273.607 276.333 274.872 292.77 278.037 304.719C278.707 307.248 280.564 310.863 278.961 312.474C276.654 312.445 268.645 309.598 265.569 308.761C260.628 307.418 256.167 306.768 251.42 305.731C215.664 297.918 188.971 304.914 155.793 317.483C174.784 287.779 203.018 257.757 229.05 233.471C237.764 225.342 260.829 206.748 270.97 201.6C276.41 199.931 294.125 186.07 301.317 183.926Z"/><path fill="#741B0E" d="M102.532 507.104C105.367 504.944 109.515 497.757 112.315 494.675C126.74 478.794 142.469 465.059 161.931 455.649C164.039 454.617 169.134 451.733 170.966 451.305L170.988 451.877C165.104 455.498 158.09 457.941 152.019 461.746C137.244 471.007 125.024 481.482 113.842 494.843C111.02 498.214 101.957 507.938 102.976 512.203L103.991 512.73C110.766 506.542 124.862 498.134 133.091 493.074C146.249 484.982 161.073 472.654 174.741 466.351C169.719 470.209 160.703 475.338 154.832 479.4C145.795 485.654 136.805 492.042 127.755 498.26C120.531 503.223 109.539 509.13 103.12 515.071L103.459 515.958C103.681 515.996 103.904 516.031 104.125 516.072C110.26 517.198 114.217 522.627 119.282 525.916C144.069 542.008 173.846 565.573 203.107 570.429C211.494 571.82 219.712 571.564 228.164 571.554C229.642 571.935 229.536 571.6 230.209 572.434C231.151 571.758 215.913 577.759 215.678 577.837C209.304 579.957 197.922 583.097 191.223 581.725C186.45 580.749 179.969 579.559 175.11 578.343C152.175 570.21 133.632 555.467 117.41 537.685C113.792 533.718 106.792 524.802 102.486 522.853L102.532 507.104Z"/><path fill="#C35613" d="M311.438 195.005L312.221 194.346C312.48 192.368 312.401 193.782 313.254 192.083C312.176 191.228 312.789 191.513 311.26 191.519C308.237 194.065 307.233 202.055 306.57 206.093C303.736 223.821 297.697 241.731 296.238 259.656C295.466 269.142 294.652 283.687 296.105 292.921C297.365 300.926 301.108 317.676 304.538 324.441L304.316 325.52C301.006 318.08 300.537 315.2 298.471 307.408C289.699 274.329 297.469 244.204 304.656 211.939C305.622 207.741 306.444 203.512 307.122 199.258C307.557 196.494 307.845 191.11 309.272 188.973C311.392 188.969 316.792 192.895 319.123 194.147C348.391 209.855 377.05 228.47 401.277 251.313C412.222 261.632 421.556 274.492 428.027 287.998C429.675 291.437 430.306 296.743 432.143 300.155C432.715 301.217 432.647 302.496 432.703 303.737L433.26 304.265C436.499 303.646 438.448 302.481 441.497 301.732C442.745 299.692 441 298.958 442.286 297.389C443.619 298.754 442.943 299.604 444.039 302C445.974 300.356 448.112 300.583 450.367 299.265C454.333 298.423 467.056 293.757 469.691 295.17C467.425 296.351 462.801 297.067 459.976 297.903C451.911 300.291 436.699 304.352 429.555 308.425C429.509 308.306 429.463 308.186 429.417 308.067C427.653 298.726 424.397 289.731 419.774 281.425C403.19 251.31 355.016 218.734 325.091 202.431C321.339 200.387 315.142 196.075 311.438 195.005Z"/><path fill="#C35613" d="M321.294 356.316C323.35 356.913 324.603 358.204 325.825 359.835L325.524 359.856C324.027 359.151 322.538 357.515 321.294 356.316Z"/><path fill="#C35613" d="M450.367 299.265C449.253 298.751 449.822 298.946 448.263 299.265C447.272 298.402 447.512 297.723 447.243 296.022L446.452 295.651L446.484 297.63L446.08 297.719C444.934 294.823 444.344 287.41 443.444 283.663C440.305 270.591 441.121 258.001 443.137 244.686C449.795 200.72 484.36 170.979 509.573 137.471C509.631 137.321 509.689 137.171 509.747 137.021C535.82 167.567 563.204 199.916 573.094 239.625C578.357 260.753 578.845 267.85 569.285 288.153C568.321 290.201 568.178 293.532 566.697 295.274C566.03 296.058 566.097 295.715 565.532 296.808C565.981 297.668 565.997 296.628 568.208 298.233C563.121 298.196 559.75 295.453 552.584 296.137C557.339 303.522 563.054 310.939 568.339 318.015C563.836 316.141 556.731 314.066 553.404 311.107C552.217 312.411 551.89 315.775 551.603 317.605C552.843 322.094 555.682 320.835 554.68 326.017C551.546 322.507 546.647 315.548 543.82 311.654C532.091 295.558 521.453 278.695 511.977 261.177C505.008 273.49 490.791 297.731 482.15 308.399C482.891 304.852 485.172 303.667 485.714 301.167C481.752 301.556 482.75 306.304 478.954 306.512C477.665 306.582 476.781 306.699 475.804 307.581C475.409 308.576 475.031 309.456 474.446 310.354L474.02 309.935L474.952 307.592C472.849 306.18 469.481 306.493 467.035 306.713C465.182 307.805 463.044 309.88 461.589 311.473L460.788 311.579C461.574 309.846 470.185 298.53 471.919 296.117L469.691 295.17C467.056 293.757 454.333 298.423 450.367 299.265Z"/><defs><linearGradient id="gradient_5" gradientUnits="userSpaceOnUse" x1="514.65796" y1="322.18365" x2="523.09021" y2="177.14476"><stop offset="0" stop-color="#FCE9B2"/><stop offset="1" stop-color="#FCFFFF"/></linearGradient></defs><path fill="url(#gradient_5)" d="M481.288 282.717C498.282 258.976 503.564 231.938 507.108 203.685C508.082 195.915 509.93 182.003 511.807 174.564C515.3 186.879 516.057 205.322 518.085 218.324C521.952 243.118 530.626 264.552 544.908 285.144C546.007 286.729 551.575 295.111 552.584 296.137C557.339 303.522 563.054 310.939 568.339 318.015C563.836 316.141 556.731 314.066 553.404 311.107C552.217 312.411 551.89 315.775 551.603 317.605C552.843 322.094 555.682 320.835 554.68 326.017C551.546 322.507 546.647 315.548 543.82 311.654C532.091 295.558 521.453 278.695 511.977 261.177C505.008 273.49 490.791 297.731 482.15 308.399C482.891 304.852 485.172 303.667 485.714 301.167C481.752 301.556 482.75 306.304 478.954 306.512C477.665 306.582 476.781 306.699 475.804 307.581C475.409 308.576 475.031 309.456 474.446 310.354L474.02 309.935L474.952 307.592C472.849 306.18 469.481 306.493 467.035 306.713C465.182 307.805 463.044 309.88 461.589 311.473L460.788 311.579C461.574 309.846 470.185 298.53 471.919 296.117C473.023 295.135 479.177 285.858 480.383 284.058L481.288 282.717Z"/><path fill="#D26E23" d="M480.383 284.058C479.497 277.505 480.393 258.318 481.763 251.932C485.767 233.259 495.596 212.393 505.151 195.844C506.374 196.821 496.625 214.363 495.428 216.912C487.928 232.877 481.334 249.943 481.269 267.826C481.253 272.251 480.511 278.512 481.288 282.717L480.383 284.058Z"/><path fill="#D26E23" d="M518.703 205.349C518.814 205.42 518.926 205.488 519.035 205.561C522.629 207.957 532.507 240.73 533.805 247.267C532.178 245.245 531.786 241.524 530.672 239.151C525.691 228.538 523.286 215.817 518.703 205.349Z"/><path fill="#94300E" d="M691.142 372.016L692.194 372.268L692.478 371.776C713.937 361.671 719.742 342.389 742.079 333.868C774.167 321.626 809.88 324.128 842.816 331.773C848.86 333.205 857.125 335.099 862.847 337.161L863.617 337.444C854.855 366.299 844.313 394.771 824.133 417.694C822.774 419.239 813.75 428.954 813.462 429.576C806.241 437.971 780.725 452.166 769.871 452.167C759.365 454.2 748.203 458.268 737.816 460.955C736.918 458.038 733.117 447.522 732.949 445.512C732.461 442.593 727.542 430.492 726.167 427.266L725.719 427.571C724.626 425.641 721.146 419.528 721.221 417.734C718.771 409.734 706.297 392.654 701.112 385.628C699.346 384.477 691.699 374.316 690.372 372.124L691.142 372.016Z"/><path fill="#AF4511" d="M702.919 386.091C704.268 388.708 708.199 393.713 710.433 395.702C711.948 395.712 712.989 394.68 714.021 393.569C728.226 378.281 747.308 368.425 768.475 368.973C778.512 369.232 788.857 369.031 798.916 368.531C800.253 368.464 802.187 369.214 803.438 369.754L803.835 370.483C800.448 376.144 780.346 397.4 775.105 401.412C767.216 408.063 741.967 417.687 732.03 416.831C729.952 416.851 724.285 416.77 722.576 417.156L722.065 418.347L721.221 417.734C718.771 409.734 706.297 392.654 701.112 385.628L702.919 386.091Z"/><path fill="#94300E" d="M716.629 406.985C720.158 401.588 724.217 396.558 728.745 391.967C743.031 377.499 757.809 374.11 777.335 373.95C780.384 374.102 784.2 373.945 786.873 374.895L787.351 375.698C786.557 378.366 784.854 380.088 783.666 382.449C774.008 401.639 755.386 411.716 734.589 414.413C731.682 414.791 728.7 414.86 725.808 415.199L721.432 415.058C719.446 412.175 718.298 410.077 716.629 406.985Z"/><path fill="#C35613" d="M702.919 386.091C704.268 388.708 708.199 393.713 710.433 395.702C711.948 395.712 712.989 394.68 714.021 393.569C728.226 378.281 747.308 368.425 768.475 368.973C778.512 369.232 788.857 369.031 798.916 368.531C800.253 368.464 802.187 369.214 803.438 369.754L803.835 370.483C800.448 376.144 780.346 397.4 775.105 401.412L774.894 400.332C784.577 390.168 793.729 379.849 803.553 369.899C796.317 369.792 788.93 370.037 781.77 370.005C760.242 369.907 745.041 370.606 726.924 383.818C720.042 388.837 717.492 392.802 711.796 397.65L711.43 397.956C713.117 400.784 714.177 402.45 715.372 405.524C725.948 389.943 735.285 381.227 753.859 375.183C758.678 373.615 773.104 371.625 777.335 373.95C757.809 374.11 743.031 377.499 728.745 391.967C724.217 396.558 720.158 401.588 716.629 406.985C718.298 410.077 719.446 412.175 721.432 415.058L725.808 415.199C724.283 415.639 723.342 415.452 722.018 416.249C724.639 416.351 729.556 416.257 732.03 416.831C729.952 416.851 724.285 416.77 722.576 417.156L722.065 418.347L721.221 417.734C718.771 409.734 706.297 392.654 701.112 385.628L702.919 386.091Z"/><path fill="#C35613" d="M702.919 386.091C703.813 380.786 714.032 371.29 718.366 368.245C726.68 362.406 738.118 357.422 747.989 355.114C751.529 354.282 755.123 353.702 758.745 353.378C767.37 352.569 835.891 348.779 838.776 350.318C836.35 351.479 821.427 350.815 817.92 351.043C780.658 353.466 738.227 349.449 709.701 378.469C708.233 379.963 704.101 385.43 702.919 386.091Z"/><path fill="#AF4511" d="M726.167 427.266C728.879 429.326 731.133 438.278 732.81 442.163C739.556 440.401 745.756 438.264 751.975 436.594L751.856 436.985C746.974 439.431 738.672 441.409 733.246 442.647L733.125 443.257C741.028 443.679 756.437 434.944 760.058 436.014C756.809 436.9 753.124 438.426 750.001 439.769C746.229 441.391 735.289 442.674 732.949 445.512C732.461 442.593 727.542 430.492 726.167 427.266Z"/><defs><linearGradient id="gradient_6" gradientUnits="userSpaceOnUse" x1="609.83612" y1="217.53902" x2="567.23761" y2="52.76675"><stop offset="0" stop-color="#B3470E"/><stop offset="1" stop-color="#CE5F16"/></linearGradient></defs><path fill="url(#gradient_6)" d="M268.823 102.945C273.874 102.226 283.243 102.467 288.585 102.479L319.814 102.559L422.951 102.549L642.934 102.777L711.43 102.784C733.903 102.717 769.624 101.012 790.828 107.754L790.159 108.323L791.25 108.751L790.709 109.483C790.366 109.336 790.023 109.189 789.68 109.041C789.353 109.707 789.043 110.361 788.692 111.014L786.449 110.916C785.984 112.106 786.252 112.809 786.444 114.103C785.56 115.184 785.049 115.397 783.856 115.754C780.926 116.63 776.385 120.687 775.646 123.829C773.732 131.975 771.023 138.735 767.078 146.144C766.322 147.564 766.625 150.514 765.878 151.948C758.531 160.401 746.797 166.579 745.129 178.711C744.679 181.985 742.52 182.256 742.008 184.928C736.469 181.949 730.905 178.356 725.365 175.209C714.785 169.219 704.025 163.553 693.099 158.219C636.491 131.089 578.497 121.623 516.124 120.171C514.187 118.417 512.001 116.321 509.95 114.754C507.103 117.369 505.404 119.044 501.934 120.886C489.129 121.18 476.294 122.892 463.908 124.278C405.231 130.845 347.903 151.049 297.002 180.771C294.1 182.465 283.231 189.31 281.037 189.227C282.27 187.669 293.773 181.499 296.044 180.112C323.367 163.417 352.651 151.102 383.048 141.258C387.356 139.863 392.862 138.521 396.873 136.719L396.922 136.227C395.294 136.334 395.511 136.491 394.044 136.008C393.421 132.974 398.225 129.627 400.26 125.507C398.981 123.941 396.484 124.715 394.778 123.022C395.369 121.505 395.72 120.509 396.191 118.953C393.121 114.263 393.151 111.499 387.308 110.825C385.941 110.667 385.225 107.712 384.699 106.343C380.805 103.101 350.819 103.776 344.316 103.749L295.402 103.214C287.6 103.136 276.919 103.448 269.368 102.982L268.823 102.945Z"/><path fill="#AF4511" d="M606.409 311.084L607.059 310.683C603.813 306.236 591.226 306.245 589.631 301.713L590.272 300.204C591.062 300.881 590.963 301.616 591.253 302.898C591.627 302.588 599.264 278.677 601.307 275.129C610.427 259.294 622.104 245.646 637.878 236.08C657.865 224.029 678.266 217.598 699.841 209.515C706.84 206.893 714.064 202.851 720.701 199.465C733.189 246.416 737.46 284.399 712.326 329.47C704.764 343.029 694.921 353.197 686.205 365.497C683.756 363.93 678.562 357.414 673.901 354.262L673.356 354.676C672.206 353.468 670.714 352.138 669.48 350.975L669.88 350.734C668.756 349.444 668.762 349.425 667.994 347.888C665.676 347.706 659.031 339.07 654.582 338.621C653.65 338.579 654.112 338.742 653.309 337.883C645.974 332.233 630.858 322.445 622.419 318.68C621.139 318.92 607.118 312.432 606.409 311.084Z"/><path fill="#C35613" d="M679.997 264.636L679.727 265.401C677.261 272.505 675.744 282.369 674.07 289.864C670.887 304.109 661.349 324.341 651.159 334.81C652.236 336.027 652.9 336.44 653.309 337.883C645.974 332.233 630.858 322.445 622.419 318.68C618.387 315.76 621.86 314.141 623.551 310.345C634.37 286.057 655.993 273.519 679.997 264.636Z"/><path fill="#AF4511" d="M675.472 273.129L675.919 273.77C674.819 292.715 662.884 320.545 649.345 333.995C646.568 331.487 640.45 327.597 637.154 325.556L627.696 320.136C628.406 315.795 629.668 312.284 631.796 308.444C642.2 289.67 655.22 279.354 675.472 273.129Z"/><path fill="#AF4511" d="M676.719 266.873C677.556 266.939 677.16 266.776 677.826 267.529C677.572 269.445 677.373 270.87 675.375 271.568C668.366 274.019 661.968 277.146 655.33 280.31C642.934 286.014 636.059 297.202 629.976 308.83C628.227 312.175 624.174 315.626 625.879 318.924C624.387 318.571 624.439 318.538 623.118 317.719C622.643 316.559 622.38 316.172 623.057 314.738C636.286 286.713 650.228 279.478 676.719 266.873Z"/><defs><linearGradient id="gradient_7" gradientUnits="userSpaceOnUse" x1="702.89398" y1="289.01822" x2="682.92145" y2="280.52863"><stop offset="0" stop-color="#B1430E"/><stop offset="1" stop-color="#C86C27"/></linearGradient></defs><path fill="url(#gradient_7)" d="M667.994 347.888C670.777 344.76 671.737 343.261 674.012 339.822C694.398 309 698.123 272.683 705.796 237.411C706.552 233.938 710.181 219.881 709.628 217.434L708.086 217.226C709.213 215.993 708.553 216.328 710.011 215.983C711.067 217.762 710.155 222.06 709.828 224.171C707.251 240.81 707.635 258.86 704.55 275.361C700.202 300.574 697.195 321.743 681.547 342.886C680.19 344.72 674.267 352.883 673.901 354.262L673.356 354.676C672.206 353.468 670.714 352.138 669.48 350.975L669.88 350.734C668.756 349.444 668.762 349.425 667.994 347.888Z"/><path fill="#C35613" d="M669.88 350.734C671.015 351.372 670.575 351.229 671.912 351.384C683.103 341.766 694.318 311.85 698.454 297.848C699.892 292.979 701.78 278.152 704.55 275.361C700.202 300.574 697.195 321.743 681.547 342.886C680.19 344.72 674.267 352.883 673.901 354.262L673.356 354.676C672.206 353.468 670.714 352.138 669.48 350.975L669.88 350.734Z"/><path fill="#94300E" d="M867.335 335.682C860.891 332.532 850.316 330.107 843.195 328.27C815.169 321.039 790.099 318.867 761.389 323.1C754.944 324.051 742.649 328.596 737.342 328.983C738.486 327.532 738.964 325.599 740.155 324.045C745.714 316.791 754.741 313.424 762.981 310.39C798.541 297.296 845.893 313.298 879.036 328.917C879.771 346.118 873.724 363.547 868.592 379.857C867.222 384.208 863.884 390.672 862.8 394.734L862.589 395.558C861.577 399.695 859.285 403.21 857.174 406.901C850.104 419.26 841.715 429.646 829.484 437.233C827.223 438.635 826.464 439.065 823.851 438.766C819.694 438.292 812.278 438.529 808.545 436.913L808.73 435.623L808.874 436.989L809.121 437.044L809.548 435.401C813.26 434.817 813.014 431.772 816.273 430.986C819.131 429.482 822.24 425.319 824.526 422.914C841.599 404.951 851.822 382.143 860.013 359.081C862.78 351.291 865.596 343.809 867.335 335.682Z"/><path fill="#C35613" d="M575.763 298.776C579.574 300.276 583.527 301.739 587.612 302.196C589.222 301.392 590.49 298.205 590.891 296.543C594.219 282.758 597.214 273.752 605.169 262.107C627.595 229.278 663.898 218.224 699.424 205.858C703.389 204.478 720.891 195.937 723.485 196.332C724.605 198.716 727.189 210.513 727.94 213.735C735.607 246.642 737.228 276.447 725.463 308.918C716.116 334.72 703.895 346.526 687.545 366.98C687.99 367.747 688.408 368.455 688.875 369.213L690.29 370.628L691.142 372.016L690.372 372.124C688.741 370.247 687.155 368.332 685.615 366.38L686.205 365.497C694.921 353.197 704.764 343.029 712.326 329.47C737.46 284.399 733.189 246.416 720.701 199.465C714.064 202.851 706.84 206.893 699.841 209.515C678.266 217.598 657.865 224.029 637.878 236.08C622.104 245.646 610.427 259.294 601.307 275.129C599.264 278.677 591.627 302.588 591.253 302.898C590.963 301.616 591.062 300.881 590.272 300.204L589.631 301.713C591.226 306.245 603.813 306.236 607.059 310.683L606.409 311.084C596.696 306.437 585.13 302.875 574.895 299.588L575.763 298.776Z"/><defs><linearGradient id="gradient_8" gradientUnits="userSpaceOnUse" x1="571.4295" y1="283.75302" x2="578.25787" y2="285.16525"><stop offset="0" stop-color="#B54505"/><stop offset="1" stop-color="#CB6B23"/></linearGradient></defs><path fill="url(#gradient_8)" d="M570.937 298.818C570.416 296.993 569.327 296.695 569.344 296.55C570.036 290.484 576.038 274.375 577.865 269.702L578.44 269.546L579.137 270.729C580.136 268.757 581.872 263.398 583.457 262.678C582.623 265.82 580.303 268.418 579.331 273.488C577.692 282.043 577.44 290.337 575.763 298.776L574.895 299.588C573.969 299.209 571.985 298.956 570.937 298.818Z"/><path fill="#AF4511" d="M688.875 369.213C692.814 366.392 695.333 363.345 698.826 360.123C703.999 355.427 709.733 351.39 715.899 348.104C710.803 353.307 697.033 366.017 691.139 370.045L690.611 370.412L690.29 370.628L688.875 369.213Z"/><path fill="#C35613" d="M521.68 126.165C533.67 126.101 546.647 127.818 558.641 128.815C618.118 133.755 671.742 150.987 724.029 180.404C719.242 181.45 712.523 183.814 707.669 185.267C697.932 188.181 688.315 191.092 678.383 193.347C643.771 203.636 620.711 212.312 595.33 239.379C592.74 231.892 592.148 221.449 588.799 213.002C575.128 178.527 550.582 148.757 521.68 126.165Z"/><defs><linearGradient id="gradient_9" gradientUnits="userSpaceOnUse" x1="341.05078" y1="222.64871" x2="495.03183" y2="130.39119"><stop offset="0" stop-color="#B44810"/><stop offset="1" stop-color="#D05E12"/></linearGradient></defs><path fill="url(#gradient_9)" d="M490.238 126.699L495.313 126.411C491.189 130.631 485.935 135.353 481.627 139.497C457.971 162.252 436.215 184.713 424.29 215.987C421.599 223.042 418.188 232.857 417.861 240.476C412.78 235.91 408.329 230.895 403.126 226.295C389.689 214.414 376.686 205.975 361.04 197.47C344.091 188.319 329.946 183.361 311.244 178.393C374.585 146.923 419.669 133.308 490.238 126.699Z"/><defs><linearGradient id="gradient_10" gradientUnits="userSpaceOnUse" x1="864.86542" y1="329.80185" x2="712.13403" y2="231.43959"><stop offset="0" stop-color="#942D0E"/><stop offset="1" stop-color="#B64810"/></linearGradient></defs><path fill="url(#gradient_10)" d="M736.909 188.497C738.702 189.806 740.839 191.017 742.742 192.219C752.275 198.237 761.441 204.865 770.534 211.539C796.047 230.596 819.33 252.468 839.942 276.742C847.294 285.443 853.888 294.642 860.569 303.849C864.764 309.63 869.131 316.75 873.908 321.961L858.129 315.926C825.272 304.44 791.529 294.374 757.219 307.859C753.261 309.415 748.58 311.127 745.156 313.671C747.674 304.312 750.904 292.997 752.073 283.476C755.818 252.986 748.601 216.751 736.909 188.497Z"/><path fill="#C35613" d="M508.238 124.504C513.532 125.394 516.101 128.338 519.936 131.741C547.359 156.074 574.983 184.272 586.753 219.834C589.255 227.392 590.536 235.198 591.957 243.13C588.885 248.029 582.96 256.929 580.487 261.275L580.007 262.129C578.521 261.798 578.018 259.788 578.034 258.431C578.649 207.032 539.833 167.752 510.013 130.492C508.754 132.262 507.624 133.693 506.25 135.377C469.087 179.245 439.341 206.566 437.723 268.259C431.642 257.047 427.761 253.759 421.898 244.375C422.263 207.65 458.116 167.777 484.054 144.966C491.878 138.085 499.482 130.145 508.238 124.504Z"/><defs><linearGradient id="gradient_11" gradientUnits="userSpaceOnUse" x1="512.25458" y1="672.51874" x2="511.66257" y2="300.95831"><stop offset="0" stop-color="#FDB54A"/><stop offset="1" stop-color="#FDF2C1"/></linearGradient></defs><path fill="url(#gradient_11)" d="M511.977 261.177C521.453 278.695 532.091 295.558 543.82 311.654C546.647 315.548 551.546 322.507 554.68 326.017C555.682 320.835 552.843 322.094 551.603 317.605C551.89 315.775 552.217 312.411 553.404 311.107C556.731 314.066 563.836 316.141 568.339 318.015C563.054 310.939 557.339 303.522 552.584 296.137C559.75 295.453 563.121 298.196 568.208 298.233C569.495 298.876 569.471 298.784 570.937 298.818C571.985 298.956 573.969 299.209 574.895 299.588C585.13 302.875 596.696 306.437 606.409 311.084C607.118 312.432 621.139 318.92 622.419 318.68C630.858 322.445 645.974 332.233 653.309 337.883C654.112 338.742 653.65 338.579 654.582 338.621C659.031 339.07 665.676 347.706 667.994 347.888C668.762 349.425 668.756 349.444 669.88 350.734L669.48 350.975C670.714 352.138 672.206 353.468 673.356 354.676L673.901 354.262C678.562 357.414 683.756 363.93 686.205 365.497L685.615 366.38C687.155 368.332 688.741 370.247 690.372 372.124C691.699 374.316 699.346 384.477 701.112 385.628C706.297 392.654 718.771 409.734 721.221 417.734C721.146 419.528 724.626 425.641 725.719 427.571L726.167 427.266C727.542 430.492 732.461 442.593 732.949 445.512C733.117 447.522 736.918 458.038 737.816 460.955C742.599 476.846 744.096 491.015 745.03 507.529C745.295 512.211 745.168 519.852 745.53 524.049C744.982 530.41 744.899 537.494 744.179 543.796C742.016 562.741 737.629 581.618 730.811 599.44C730.383 600.558 730.277 600.913 729.97 602.072L730.419 602.786L731.224 602.745C729.429 606.661 726.486 611.776 725.141 615.376L724.537 615.709C722.991 616.535 723.642 615.924 722.905 617.974L723.059 618.424L724.305 617.904C724.776 618.409 724.885 618.4 725.138 618.995L723.947 619.247C723.589 621.029 723.106 620.798 722.204 622.262C725.829 622.319 727.426 625.637 730.251 627.735C749.378 641.94 770.375 647.11 793.485 650.357C796.74 650.815 800.411 650.774 803.722 651.055C805.867 651.249 814.374 660.59 815.648 662.314C794.158 658.727 774.146 658.264 752.884 652.303C744.112 649.843 732.67 642.353 727.8 641.173L726.789 642.082L726.192 642.407C725.629 639.28 724.813 636.016 721.598 634.593C717.157 632.628 711.302 634.762 706.727 635.544C686.277 639.037 666.03 644.05 646.618 651.424C596.822 670.094 557.301 701.212 529.77 746.982C522.517 759.041 518.695 770.138 513.073 782.637C510.289 777.399 507.535 769.869 504.556 764.028C496.474 748.424 486.846 733.671 475.817 719.991C435.457 670.083 376.15 643.38 313.153 636.703C313.06 634.094 301.312 612.228 299.218 610.433C297.828 609.501 293.675 598.974 292.733 596.765L293.078 596.412C292.602 593.97 291.38 590.832 290.615 588.498C272.511 533.271 275.806 467.839 303.826 416.37C305.883 412.592 308.732 407.792 310.305 403.805C313.424 399.3 320.599 388.333 323.799 384.832L323.928 384.882C324.256 384.747 334.38 373.107 334.98 372.115L334.253 370.5L334.844 370.041L335.83 370.34C337.948 369.296 336.51 369.229 338.219 366.911L338.716 367.299C341.478 365.29 347.68 359.546 350.695 356.937C354.948 353.079 362.357 347.839 367.047 344.403C369.012 343.276 375.699 338.397 377.034 336.743C378.138 335.749 378.134 335.862 379.454 335.126C384.347 332.037 389.434 329.06 394.403 326.486C397.341 324.964 412.46 317.537 413.315 315.953C414.441 315.055 415.136 314.981 416.512 314.605C418.342 314.029 428.708 309.505 429.555 308.425C436.699 304.352 451.911 300.291 459.976 297.903C462.801 297.067 467.425 296.351 469.691 295.17L471.919 296.117C470.185 298.53 461.574 309.846 460.788 311.579L461.589 311.473C463.044 309.88 465.182 307.805 467.035 306.713C469.481 306.493 472.849 306.18 474.952 307.592L474.02 309.935L474.446 310.354C475.031 309.456 475.409 308.576 475.804 307.581C476.781 306.699 477.665 306.582 478.954 306.512C482.75 306.304 481.752 301.556 485.714 301.167C485.172 303.667 482.891 304.852 482.15 308.399C490.791 297.731 505.008 273.49 511.977 261.177Z"/><defs><linearGradient id="gradient_12" gradientUnits="userSpaceOnUse" x1="540.5155" y1="781.35602" x2="555.33209" y2="296.44904"><stop offset="0" stop-color="#5D0E08"/><stop offset="1" stop-color="#B2440D"/></linearGradient></defs><path fill="url(#gradient_12)" d="M469.691 295.17L471.919 296.117C470.185 298.53 461.574 309.846 460.788 311.579C456.868 316.481 453.25 321.551 449.477 326.547C401.767 389.727 342.276 449.045 351.875 534.568C356.672 575.524 377.547 612.896 409.906 638.457C444.038 665.621 487.611 678.018 530.93 672.888C573.882 667.856 613.803 644.191 640.409 610.342C665.911 577.97 677.566 536.822 672.827 495.884C666.488 443.806 623.381 388.798 591.431 347.988C586.309 341.396 581.221 334.778 576.167 328.133C574.26 325.628 570.255 320.06 568.339 318.015C563.054 310.939 557.339 303.522 552.584 296.137C559.75 295.453 563.121 298.196 568.208 298.233C569.495 298.876 569.471 298.784 570.937 298.818C571.985 298.956 573.969 299.209 574.895 299.588C585.13 302.875 596.696 306.437 606.409 311.084C607.118 312.432 621.139 318.92 622.419 318.68C630.858 322.445 645.974 332.233 653.309 337.883C654.112 338.742 653.65 338.579 654.582 338.621C659.031 339.07 665.676 347.706 667.994 347.888C668.762 349.425 668.756 349.444 669.88 350.734L669.48 350.975C670.714 352.138 672.206 353.468 673.356 354.676L673.901 354.262C678.562 357.414 683.756 363.93 686.205 365.497L685.615 366.38C687.155 368.332 688.741 370.247 690.372 372.124C691.699 374.316 699.346 384.477 701.112 385.628C706.297 392.654 718.771 409.734 721.221 417.734C721.146 419.528 724.626 425.641 725.719 427.571L726.167 427.266C727.542 430.492 732.461 442.593 732.949 445.512C733.117 447.522 736.918 458.038 737.816 460.955C742.599 476.846 744.096 491.015 745.03 507.529C745.295 512.211 745.168 519.852 745.53 524.049C744.982 530.41 744.899 537.494 744.179 543.796C742.016 562.741 737.629 581.618 730.811 599.44C730.383 600.558 730.277 600.913 729.97 602.072L730.419 602.786L731.224 602.745C729.429 606.661 726.486 611.776 725.141 615.376L724.537 615.709C722.991 616.535 723.642 615.924 722.905 617.974L723.059 618.424L724.305 617.904C724.776 618.409 724.885 618.4 725.138 618.995L723.947 619.247C723.589 621.029 723.106 620.798 722.204 622.262C725.829 622.319 727.426 625.637 730.251 627.735C749.378 641.94 770.375 647.11 793.485 650.357C796.74 650.815 800.411 650.774 803.722 651.055C805.867 651.249 814.374 660.59 815.648 662.314C794.158 658.727 774.146 658.264 752.884 652.303C744.112 649.843 732.67 642.353 727.8 641.173L726.789 642.082L726.192 642.407C725.629 639.28 724.813 636.016 721.598 634.593C717.157 632.628 711.302 634.762 706.727 635.544C686.277 639.037 666.03 644.05 646.618 651.424C596.822 670.094 557.301 701.212 529.77 746.982C522.517 759.041 518.695 770.138 513.073 782.637C510.289 777.399 507.535 769.869 504.556 764.028C496.474 748.424 486.846 733.671 475.817 719.991C435.457 670.083 376.15 643.38 313.153 636.703C313.06 634.094 301.312 612.228 299.218 610.433C297.828 609.501 293.675 598.974 292.733 596.765L293.078 596.412C292.602 593.97 291.38 590.832 290.615 588.498C272.511 533.271 275.806 467.839 303.826 416.37C305.883 412.592 308.732 407.792 310.305 403.805C313.424 399.3 320.599 388.333 323.799 384.832L323.928 384.882C324.256 384.747 334.38 373.107 334.98 372.115L334.253 370.5L334.844 370.041L335.83 370.34C337.948 369.296 336.51 369.229 338.219 366.911L338.716 367.299C341.478 365.29 347.68 359.546 350.695 356.937C354.948 353.079 362.357 347.839 367.047 344.403C369.012 343.276 375.699 338.397 377.034 336.743C378.138 335.749 378.134 335.862 379.454 335.126C384.347 332.037 389.434 329.06 394.403 326.486C397.341 324.964 412.46 317.537 413.315 315.953C414.441 315.055 415.136 314.981 416.512 314.605C418.342 314.029 428.708 309.505 429.555 308.425C436.699 304.352 451.911 300.291 459.976 297.903C462.801 297.067 467.425 296.351 469.691 295.17Z"/><path fill="#C35613" d="M654.582 338.621C659.031 339.07 665.676 347.706 667.994 347.888C668.762 349.425 668.756 349.444 669.88 350.734L669.48 350.975C664.611 346.994 659.191 342.819 654.582 338.621Z"/><path fill="#C35613" d="M673.901 354.262C678.562 357.414 683.756 363.93 686.205 365.497L685.615 366.38C682.935 364.171 675.742 357.241 673.356 354.676L673.901 354.262Z"/><path fill="#94300E" d="M293.078 596.412C294.566 598.107 299.062 607.834 299.218 610.433C297.828 609.501 293.675 598.974 292.733 596.765L293.078 596.412Z"/><defs><linearGradient id="gradient_13" gradientUnits="userSpaceOnUse" x1="505.20071" y1="627.51508" x2="527.67792" y2="263.96933"><stop offset="0" stop-color="#721802"/><stop offset="1" stop-color="#B84B0B"/></linearGradient></defs><path fill="url(#gradient_13)" d="M511.977 261.177C521.453 278.695 532.091 295.558 543.82 311.654C546.647 315.548 551.546 322.507 554.68 326.017C555.798 327.989 560.97 334.556 562.535 336.636C568.734 344.901 575.009 353.107 581.36 361.255C594.641 378.223 607.391 395.599 619.59 413.36C644.904 450.606 662.644 482.552 657.27 530.35C653.361 565.128 632.916 602.249 605.289 623.819C622.858 604.391 634.398 580.274 638.503 554.404C639.998 545.079 640.664 535.682 640.306 526.31C638.867 503.271 628.863 472.033 615.634 452.682C589.499 414.454 557.332 379.868 531.541 341.152C527.605 335.244 524.133 327.327 520.3 322.03L519.84 323.011C520.557 324.077 520.63 323.769 520.684 324.765C519.165 325.305 519.359 325.296 517.741 325.276C512.955 325.217 506.738 333.756 501.719 328.591C500.774 327.619 501.018 327.085 501.029 325.868C486.532 349.674 467.844 374.381 450.317 396.181C410.124 446.174 370.954 493.764 387.26 562.902C392.642 585.717 402.506 603.944 417.549 621.871L415.868 622.598C393.116 602.425 377.64 578.394 370.37 548.482C350.148 465.279 410.753 404.046 456.556 343.213C463.156 334.447 476.371 318.128 481.638 309.275L482.15 308.399C490.791 297.731 505.008 273.49 511.977 261.177Z"/><path fill="#FCEDC1" d="M512.685 303.519C514.777 310.043 517.575 315.765 520.3 322.03L519.84 323.011C520.557 324.077 520.63 323.769 520.684 324.765C519.165 325.305 519.359 325.296 517.741 325.276C512.955 325.217 506.738 333.756 501.719 328.591C500.774 327.619 501.018 327.085 501.029 325.868C505.05 318.422 509.021 311.157 512.685 303.519Z"/><path fill="#94300E" d="M417.549 621.871C418.869 623.299 422.51 626.961 423.101 628.459C422.949 628.192 422.798 627.926 422.646 627.659L421.831 627.668C419.824 626.001 417.836 624.311 415.868 622.598L417.549 621.871Z"/><defs><linearGradient id="gradient_14" gradientUnits="userSpaceOnUse" x1="504.58417" y1="643.78931" x2="522.98486" y2="341.69955"><stop offset="0" stop-color="#731A05"/><stop offset="1" stop-color="#AF440A"/></linearGradient></defs><path fill="url(#gradient_14)" d="M511.418 339.356C513.465 341.475 519.983 351.54 521.995 354.506C527.034 361.913 532.25 369.198 537.638 376.356C563.575 411.148 602.168 451.105 617.3 491.385C640.002 551.818 610.283 616.251 552.566 644.183C575.252 628.017 590.529 603.933 592.34 575.735C595.04 533.709 562.606 504.3 538.242 474.401C522.102 454.596 515.079 442.613 511.277 417.019C511.068 416.356 510.918 416.101 510.618 415.475C509.799 416.902 509.61 423.342 509.218 425.699C499.107 486.562 422.059 514.311 431.967 583.233C435.845 610.211 450.132 627.408 470.628 643.508C464.881 641.108 459.355 638.21 454.114 634.847C427.388 617.823 407.669 584.203 401.25 553.599C389.1 495.673 423.59 454.694 456.571 412.734C475.33 388.868 495.11 364.79 511.418 339.356Z"/><path fill="#94300E" d="M511.215 451.299C512.649 452.714 516.939 461.295 518.555 463.949C536.989 494.239 573.428 520.88 581.048 556.35C584.999 575.619 581.209 595.67 570.498 612.168C556.909 632.743 537.038 644.636 513.144 649.634C505.019 649.398 494.754 645.405 487.557 641.755C466.777 631.216 451.748 614.962 444.592 592.602C428.811 543.294 469.688 511.886 495.872 476.521C502.505 467.562 506.221 460.951 511.215 451.299Z"/><path fill="#FAAC40" d="M513.073 782.637C518.695 770.138 522.517 759.041 529.77 746.982C557.301 701.212 596.822 670.094 646.618 651.424C666.03 644.05 686.277 639.037 706.727 635.544C711.302 634.762 717.157 632.628 721.598 634.593C724.813 636.016 725.629 639.28 726.192 642.407C725.072 650.085 724.66 657.852 723.426 665.521L724.022 665.459L725.821 666.381C723.897 666.857 723.496 666.957 723.497 669.336C723.498 673.445 719.888 679.647 720.055 683.335L721.704 683.554C720.159 683.862 720.683 683.449 719.844 684.465C722.636 688.722 733.526 689.155 736.11 693.011C743.444 693.82 779.412 696.907 783.276 702.065C784.566 703.788 784.814 705.951 785.117 708.017C783.903 713.199 782.938 716.417 780.661 721.218L778.925 724.511C771.163 737.92 766.003 746.613 755.144 758.15C751.367 762.163 744.151 768.321 741.239 771.555C739.951 772.482 730.816 778.948 730.336 779.54C705.988 795.108 687.263 805.016 658.611 811.518L654.817 812.27C651.235 813.055 647.761 813.882 644.119 814.334L641.943 814.834C639.511 815.21 635.741 815.903 633.393 816.116L631.141 816.372C617.227 818.527 602.257 819.648 588.205 820.516C586.185 820.57 583.95 820.57 581.962 820.807C575.924 821.139 569.846 821.532 563.803 821.641L555.481 821.867C548.948 821.697 542.413 821.647 535.878 821.718L528.136 821.662L518.883 821.734L497.394 821.583C479.02 821.507 460.178 820.348 442.057 820.424C439.985 820.088 437.154 820.086 434.997 820.016C428.84 819.793 422.456 819.205 416.206 818.94C414.417 818.559 410.978 818.371 409.04 818.206L403.874 817.796C401.501 817.462 398.201 817.253 395.748 817.031L381.46 815.215L378.744 814.713C353.219 810.888 333.451 802.329 310.886 790.636L309.496 789.813C282.144 773.409 264.154 756.91 248.109 729.094C243.583 719.324 241.215 713.782 237.853 703.467C237.592 701.98 237.316 701.159 237.689 699.689C240.223 698.446 243.711 698.337 246.57 697.646C268.704 692.3 286.994 692.804 309.433 694.662C306.879 687.515 304.353 680.575 302.687 673.149L302.13 671.123C300.753 665.922 299.868 660.908 298.878 655.629L298.773 654.484C297.92 648.433 297.491 643.446 297.049 637.356L297.182 637.067C302.221 636.132 308.058 636.46 313.153 636.703C376.15 643.38 435.457 670.083 475.817 719.991C486.846 733.671 496.474 748.424 504.556 764.028C507.535 769.869 510.289 777.399 513.073 782.637Z"/><path fill="#68160A" d="M723.426 665.521L724.022 665.459L725.821 666.381C723.897 666.857 723.496 666.957 723.497 669.336C723.498 673.445 719.888 679.647 720.055 683.335L721.704 683.554C720.159 683.862 720.683 683.449 719.844 684.465C722.636 688.722 733.526 689.155 736.11 693.011C728.401 692.408 722.436 692.445 714.793 692.636C719.594 682.087 720.984 676.694 723.426 665.521Z"/><path fill="#68160A" d="M309.935 648.964C337.775 649.672 371.093 660.117 396.049 671.983C449.573 697.432 484.72 741.766 504.307 797.008C496.331 789.188 487.821 781.364 479.14 774.342C455.031 754.84 430.508 735.95 403.232 721.042C401.89 720.358 400.335 719.872 398.898 719.361C385.851 727.673 399.257 732.783 406.588 737.308C434.485 754.526 466.34 776.418 488.999 800.16C481.514 796.794 469.452 794.282 460.919 791.134C427.767 778.903 392.215 765.533 363.475 744.648C331.672 721.538 315.636 686.952 309.935 648.964Z"/><path fill="#68160A" d="M521.217 795.39C528.046 775.773 534.057 761.649 545.793 744.17C576.032 699.139 620.004 672.299 670.941 655.869C683.605 651.784 699.973 648.806 713.076 646.295C712.227 657.914 711.165 667.953 707.282 679.027C703.715 698.39 681.777 728.113 666.087 739.884C664.024 741.949 661.055 744.287 658.612 745.911C657.86 746.461 657.307 746.896 656.516 747.372C650.806 751.717 637.5 759.31 630.993 762.394C628.993 763.473 627.351 764.307 625.282 765.244C593.631 779.81 572.514 787.688 538.596 796.109C556.815 778.167 574.563 763.515 596.525 750.154C606.687 743.971 617.367 738.773 627.542 732.671C630.165 730.891 632.909 729.151 633.538 725.894C634.157 722.691 629.904 719.453 627.068 720.039C621.995 721.088 615.87 724.974 611.087 727.397C576.844 744.745 548.682 768.949 521.217 795.39Z"/><defs><linearGradient id="gradient_15" gradientUnits="userSpaceOnUse" x1="684.86877" y1="719.0744" x2="676.91992" y2="712.60303"><stop offset="0" stop-color="#671100"/><stop offset="1" stop-color="#923319"/></linearGradient></defs><path fill="url(#gradient_15)" d="M658.354 735.349C669.043 721.679 683.504 709.103 694.69 695.64C694.658 695.678 700.26 694.098 700.803 693.945C701.447 692.404 702.075 691.231 702.215 689.57C700.558 689.681 701.2 689.956 700.068 689.178L700.907 687.967L701.827 688.571C704.356 687.12 705.377 682.401 706.426 679.357L707.282 679.027C703.715 698.39 681.777 728.113 666.087 739.884C664.024 741.949 661.055 744.287 658.612 745.911C658.539 742.862 660.705 737.956 661.879 735.106C657.738 734.213 661.18 735.852 658.354 735.349Z"/><path fill="#68160A" d="M661.879 735.106C664.351 729.985 668.409 726.397 672.42 722.394C670.992 726.005 666.159 736.81 666.087 739.884C664.024 741.949 661.055 744.287 658.612 745.911C658.539 742.862 660.705 737.956 661.879 735.106Z"/><path fill="#741B0E" d="M625.282 765.244C625.969 760.75 627.767 754.225 629.715 750.145C629.753 752.913 629.456 760.388 630.993 762.394C628.993 763.473 627.351 764.307 625.282 765.244Z"/><path fill="#94300E" d="M658.354 735.349C661.18 735.852 657.738 734.213 661.879 735.106C660.705 737.956 658.539 742.862 658.612 745.911C657.86 746.461 657.307 746.896 656.516 747.372C656.839 745.483 658.026 741.969 658.611 739.983C657.445 739.357 656.785 739.217 656.252 738.057C656.869 736.546 657.164 736.45 658.354 735.349Z"/><path fill="#94300E" d="M575.417 779.17C578.136 779.251 580.467 779.208 583.134 779.78L583.059 780.616L583.244 780.745C581.313 781.194 577.256 780.199 575.417 779.17Z"/><path fill="#5E100D" d="M250.764 707.645C266.225 704.367 298.935 704.083 314.205 707.172C317.323 708.064 321.368 716.362 323.319 719.34C354.807 767.416 414.697 785.332 465.115 806.033C469.322 807.761 473.783 809.065 477.943 810.797C450.273 807.678 419.612 808.968 392.407 804.875L387.96 804.301C381.592 803.379 375.251 802.27 368.948 800.977L366.121 800.306C356.352 797.941 346.881 794.544 337.48 791.04L333.899 789.45C328.55 787.337 321.881 783.769 316.852 781.019C315.74 780.485 314.161 779.489 313.05 778.833C308.223 776.291 303.575 773.013 299.203 769.765L297.831 768.888C291.796 763.848 285.97 758.563 280.367 753.046L278.389 750.917C276.091 748.635 274.346 746.615 272.239 744.165C267.995 739.273 262.786 731.378 259.629 725.905C259.125 725.225 257.418 722.009 256.904 721.092C254.407 716.694 252.577 712.349 250.764 707.645Z"/><path fill="#741B0E" d="M256.904 721.092C261.886 721.496 280.847 717.551 286.155 715.745C291.712 713.854 300.97 708.216 306.718 708.157C287.747 715.364 286.426 722.498 281.194 740.483C280.98 744.683 280.808 748.862 280.367 753.046L278.389 750.917C276.091 748.635 274.346 746.615 272.239 744.165C267.995 739.273 262.786 731.378 259.629 725.905C259.125 725.225 257.418 722.009 256.904 721.092Z"/><path fill="#5E100D" d="M259.629 725.905C259.965 725.542 260.301 725.18 260.636 724.818C270.333 721.976 279.976 719.832 289.651 716.823C278.869 723.995 277.063 733.533 272.239 744.165C267.995 739.273 262.786 731.378 259.629 725.905Z"/><path fill="#68160A" d="M333.899 789.45L333.914 788.624C334.097 772.891 330.381 757.753 339.693 742.824C339.052 749.213 337.666 755.499 337.021 761.712C336.116 770.414 336.491 782.242 337.48 791.04L333.899 789.45Z"/><path fill="#68160A" d="M313.05 778.833C313.804 776.476 313.257 774.067 313.772 771.577C316.474 758.543 317.443 741.143 329.656 732.982C330.34 732.53 331.035 732.094 331.74 731.676C330.445 732.929 327.711 735.544 326.878 736.964C320.295 748.182 317.114 765.077 316.882 777.793C316.863 778.868 316.853 779.944 316.852 781.019C315.74 780.485 314.161 779.489 313.05 778.833Z"/><path fill="#741B0E" d="M297.831 768.888C296.821 755.343 290.938 718.747 306.928 711.836L307.552 712.255C294.105 721.775 296.699 744.29 298.189 758.381C298.512 761.442 299.528 766.939 299.203 769.765L297.831 768.888Z"/><path fill="#68160A" d="M366.121 800.306C367.59 798.157 366.636 793.322 366.317 790.671C365.825 786.581 365.946 773.075 368.242 770.135C368.156 773.673 367.385 775.551 367.103 778.705C366.4 786.57 366.947 793.416 368.948 800.977L366.121 800.306Z"/><path fill="#68160A" d="M387.96 804.301L389.688 803.891C390.102 799.973 386.739 794.327 389.312 792.069C391.576 794.268 391.055 801.57 392.407 804.875L387.96 804.301Z"/><path fill="#68160A" d="M725.124 704.546C727.931 704.561 730.505 704.513 733.3 704.9C747.488 705.258 760.854 707.109 774.85 709.256C771.225 717.959 765.98 726.169 760.604 733.899C759.705 735.029 756.291 739.46 755.449 740.181C745.21 751.703 728.404 768.664 714.697 775.786L712.953 777.084C696.176 785.93 676.637 793.993 658.244 798.682L655.845 799.228C643.443 801.91 630.891 803.847 618.257 805.028L615.117 805.416L615.25 804.405C613.375 801.089 604.778 792.588 601.282 790.234L600.62 789.793C609.172 786.122 617.877 781.962 626.374 778.081C626.651 777.866 628.59 776.942 629.03 776.724C645.091 768.968 654.31 763.974 668.736 753.389C685.579 740.843 695.062 729.335 706.104 711.864L709.894 704.621C714.97 704.543 720.047 704.518 725.124 704.546Z"/><path fill="#5E100D" d="M629.03 776.724C645.091 768.968 654.31 763.974 668.736 753.389C669.423 760.509 664.385 793.789 659.413 797.71L658.433 797.636C658.78 794.676 657.639 790.388 656.423 787.695C656.879 791.538 657.515 794.874 658.244 798.682L655.845 799.228C643.443 801.91 630.891 803.847 618.257 805.028L615.117 805.416L615.25 804.405C613.375 801.089 604.778 792.588 601.282 790.234L600.62 789.793C609.172 786.122 617.877 781.962 626.374 778.081C626.651 777.866 628.59 776.942 629.03 776.724Z"/><path fill="#741B0E" d="M655.845 799.228C654.616 794.925 649.571 770.419 650.509 767.524C653.311 771.063 655.43 782.798 656.423 787.695C656.879 791.538 657.515 794.874 658.244 798.682L655.845 799.228Z"/><path fill="#741B0E" d="M601.282 790.234C603.084 789.851 602.775 789.565 604.353 790.616C611.327 795.259 613.177 796.496 618.058 803.281L618.257 805.028L615.117 805.416L615.25 804.405C613.375 801.089 604.778 792.588 601.282 790.234Z"/><path fill="#741B0E" d="M626.374 778.081C626.651 777.866 628.59 776.942 629.03 776.724C627.96 779.887 624.859 792.556 624.265 793.678C623.708 787.87 627.855 780.98 626.374 778.081Z"/><path fill="#94300E" d="M755.449 740.181C750.62 737.832 728.906 741.491 718.444 735.498L718.381 734.764C722.514 734.445 729.878 735.381 734.376 735.297C742.135 735.151 752.38 735.039 759.964 733.993L760.604 733.899C759.705 735.029 756.291 739.46 755.449 740.181Z"/><path fill="#94300E" d="M717.958 735.791C722.161 745.373 720.18 752.03 718.9 761.883C718.486 765.074 714.733 775.041 714.697 775.786L712.953 777.084C712.808 776.465 712.393 775.372 712.515 774.761C715.156 761.565 717.224 749.256 717.958 735.791Z"/><path fill="#68160A" d="M709.894 704.621C714.97 704.543 720.047 704.518 725.124 704.546L725.308 705.407C721.983 706.916 711.449 707.765 709.373 711.379L710.179 712.061C708.874 713.166 708.604 713.967 707.57 715.26L707.699 713.254C706.75 712.586 706.904 712.694 706.104 711.864L709.894 704.621Z"/><path fill="#94300E" d="M725.124 704.546C727.931 704.561 730.505 704.513 733.3 704.9C729.891 707.334 720.324 707.194 716.104 709.202C715.123 709.669 710.338 711.281 709.373 711.379C711.449 707.765 721.983 706.916 725.308 705.407L725.124 704.546Z"/><path fill="#94300E" d="M695.894 729.758L696.547 730.337C697.386 732.758 695.757 737.234 694.989 739.674L694.455 739.323C694.72 736.356 695.402 732.749 695.894 729.758Z"/><path fill="#550D0E" d="M545.799 807.912C548.466 806.87 551.402 806.009 554.183 805.296C570.249 801.179 585.187 795.848 600.62 789.793L601.282 790.234C604.778 792.588 613.375 801.089 615.25 804.405L615.117 805.416C606.451 805.8 597.351 806.805 588.564 807.304C574.322 808.044 560.056 808.247 545.799 807.912Z"/><path fill="#94300E" d="M737.816 460.955C748.203 458.268 759.365 454.2 769.871 452.167L769.867 453.26C772.708 453.254 773.608 452.288 776.335 452.408C800.413 453.469 821.786 455.207 842.752 467.728L842.831 468.237L843.193 468.481C850.803 473.528 861.04 478.17 868.682 483.435C879.501 490.889 890.829 499.441 900.518 508.287C903.033 510.584 908.808 513.123 911.27 515.835C908.895 519.365 902.583 521.374 901.054 523.859C901.577 524.108 902.041 524.328 902.493 524.694L901.675 525.166C890.632 531.607 877.781 541.835 866.548 549.11C839.124 566.871 808.435 577.627 775.756 569.895C767.958 568.05 755.162 564.255 747.89 561.452L746.838 562.253C745.184 561.945 744.592 561.779 742.981 561.262C742.333 561.755 742.495 561.461 742.325 562.028L738.868 577.689C741.857 578.051 744.325 578.608 747.159 579.651C743.197 580.236 740.353 577.019 738.261 579.423L738.243 579.567C737.601 582.015 734.109 591.973 734.517 593.335C738.545 594.217 742.301 595.901 746.163 597.16C772.36 605.702 788.361 627.63 804.374 648.524C807.551 652.668 814.694 658.167 816.869 662.489L815.648 662.314C814.374 660.59 805.867 651.249 803.722 651.055C800.411 650.774 796.74 650.815 793.485 650.357C770.375 647.11 749.378 641.94 730.251 627.735C727.426 625.637 725.829 622.319 722.204 622.262C723.106 620.798 723.589 621.029 723.947 619.247L725.138 618.995C724.885 618.4 724.776 618.409 724.305 617.904L723.059 618.424L722.905 617.974C723.642 615.924 722.991 616.535 724.537 615.709L725.141 615.376C726.486 611.776 729.429 606.661 731.224 602.745L730.419 602.786L729.97 602.072C730.277 600.913 730.383 600.558 730.811 599.44C737.629 581.618 742.016 562.741 744.179 543.796C744.899 537.494 744.982 530.41 745.53 524.049C745.168 519.852 745.295 512.211 745.03 507.529C744.096 491.015 742.599 476.846 737.816 460.955Z"/><path fill="#94300E" d="M745.351 500.91C760.245 498.297 775.475 496.258 790.436 499.668C799.335 501.697 818.033 506.93 824.256 513.832C813.749 524.183 794.357 528.772 779.77 529.132C765.907 529.474 757.735 524.516 746.544 522.723C746.649 517.543 746.365 505.77 745.351 500.91Z"/><path fill="#741B0E" d="M731.224 602.745C759.031 603.886 775.029 619.159 789.212 641.627C785.86 642.709 777.263 641.69 773.768 641.479C759.637 640.624 733.251 626.784 724.537 615.709L725.141 615.376C726.486 611.776 729.429 606.661 731.224 602.745Z"/><path fill="#94300E" d="M734.517 593.335C738.545 594.217 742.301 595.901 746.163 597.16C772.36 605.702 788.361 627.63 804.374 648.524C807.551 652.668 814.694 658.167 816.869 662.489L815.648 662.314C814.374 660.59 805.867 651.249 803.722 651.055C800.411 650.774 796.74 650.815 793.485 650.357C770.375 647.11 749.378 641.94 730.251 627.735C727.426 625.637 725.829 622.319 722.204 622.262C723.106 620.798 723.589 621.029 723.947 619.247L725.138 618.995C740.366 633.946 759.475 643.141 780.95 642.991C784.143 642.943 787.335 642.857 790.525 642.735C790.17 641.538 790.316 641.961 789.453 640.922C789.221 639.559 787.343 636.647 786.533 635.351C776.954 620.021 762.374 606.667 744.299 602.783C740.132 601.887 734.68 601.121 730.726 601.929C731.494 599.764 732.359 596.634 733.757 594.964L737.4 595.806C736.075 595.276 735.067 594.858 733.769 594.221L734.517 593.335Z"/><path fill="#AF4511" d="M824.256 513.832L825.095 513.95C814.333 529.349 783.179 533.195 766.849 529.634C762.323 528.647 748.9 524.999 746.26 525.766C746.291 526.464 746.134 526.377 746.663 526.779C748.585 528.242 752.639 528.95 754.98 529.565C769.77 533.454 784.52 534.31 799.587 531.206C805.609 529.966 836.563 520.359 839.153 517.099C839.279 516.94 839.42 516.793 839.552 516.638C839.643 516.531 839.731 516.422 839.82 516.314C841.089 516.776 840.792 516.517 841.756 517.336C838.496 519.16 832.685 520.93 828.806 522.664C803.178 534.119 781.532 538.055 753.809 530.329C751.281 529.606 748.761 528.857 746.25 528.08C745.621 539.586 744.863 548.112 742.578 559.518C744.081 560.029 746.557 560.774 747.89 561.452L746.838 562.253C745.184 561.945 744.592 561.779 742.981 561.262C742.333 561.755 742.495 561.461 742.325 562.028L738.868 577.689C741.857 578.051 744.325 578.608 747.159 579.651C743.197 580.236 740.353 577.019 738.261 579.423L738.243 579.567C737.601 582.015 734.109 591.973 734.517 593.335L733.769 594.221C735.067 594.858 736.075 595.276 737.4 595.806L733.757 594.964C732.359 596.634 731.494 599.764 730.726 601.929C734.68 601.121 740.132 601.887 744.299 602.783C762.374 606.667 776.954 620.021 786.533 635.351C787.343 636.647 789.221 639.559 789.453 640.922C790.316 641.961 790.17 641.538 790.525 642.735C787.335 642.857 784.143 642.943 780.95 642.991C759.475 643.141 740.366 633.946 725.138 618.995C724.885 618.4 724.776 618.409 724.305 617.904L723.059 618.424L722.905 617.974C723.642 615.924 722.991 616.535 724.537 615.709C733.251 626.784 759.637 640.624 773.768 641.479C777.263 641.69 785.86 642.709 789.212 641.627C775.029 619.159 759.031 603.886 731.224 602.745L730.419 602.786L729.97 602.072C730.277 600.913 730.383 600.558 730.811 599.44C737.629 581.618 742.016 562.741 744.179 543.796C744.899 537.494 744.982 530.41 745.53 524.049L746.159 523.992L746.544 522.723C757.735 524.516 765.907 529.474 779.77 529.132C794.357 528.772 813.749 524.183 824.256 513.832Z"/><path fill="#AF4511" d="M737.816 460.955C748.203 458.268 759.365 454.2 769.871 452.167L769.867 453.26C772.708 453.254 773.608 452.288 776.335 452.408C800.413 453.469 821.786 455.207 842.752 467.728L842.831 468.237C837.767 465.863 828.083 460.95 823.094 459.443C808.242 454.957 783.72 451.672 768.433 454.214C759.838 455.644 747.815 460.048 738.849 462.087C741.361 469.165 744.461 484.973 744.694 492.661C753.83 490.997 775.335 489.2 783.936 492.224L783.751 492.582C777.815 493 770.988 492.427 764.932 492.488C758.019 492.557 751.676 493.193 744.802 493.808L745.673 499.774C762.108 496.956 777.035 494.384 793.689 498.865C798.878 500.261 823.792 508.209 825.095 513.95L824.256 513.832C818.033 506.93 799.335 501.697 790.436 499.668C775.475 496.258 760.245 498.297 745.351 500.91C746.365 505.77 746.649 517.543 746.544 522.723L746.159 523.992L745.53 524.049C745.168 519.852 745.295 512.211 745.03 507.529C744.096 491.015 742.599 476.846 737.816 460.955Z"/><defs><linearGradient id="gradient_16" gradientUnits="userSpaceOnUse" x1="516.74823" y1="921.78638" x2="516.78326" y2="955.52875"><stop offset="0" stop-color="#878989"/><stop offset="1" stop-color="#B4B4B3"/></linearGradient></defs><path fill="url(#gradient_16)" d="M733.67 921.432C747.438 921.519 758.691 921.75 772.529 920.07C778.44 919.352 793.165 915.111 796.498 915.054C794.277 918.651 768.036 920.408 765.486 922.413C775.762 946.136 669.301 953.914 654.983 955.296C605.553 960.203 555.892 962.411 506.222 961.911C504.096 961.883 501.17 960.95 499.597 961.063C492.182 961.592 485.593 961.166 478.291 960.69C469.359 960.673 460.393 960.783 451.461 960.883C448.054 960.922 444.383 960.024 441.347 960.132C419.04 960.925 397.289 958.092 375.184 955.912C346.858 953.119 319.097 951.791 292.102 941.786C273.582 934.923 280.362 926.323 277.134 922.708C272.729 921.613 267.145 922.33 262.735 921.838C258.231 921.335 252.083 920.71 247.776 919.898L247.712 919.156L248.567 919.194C254.87 919.503 262.643 921.289 269.034 921.36C294.577 921.643 320.253 921.398 345.797 921.498C350.675 920.893 362.731 921.259 368.068 921.293L408.878 921.506L554.705 921.889L682.92 921.04L715.915 921.039C719.851 921.045 730.013 920.911 733.67 921.432Z"/><path fill="#C9C9C8" d="M733.67 921.432C747.438 921.519 758.691 921.75 772.529 920.07C778.44 919.352 793.165 915.111 796.498 915.054C794.277 918.651 768.036 920.408 765.486 922.413C775.762 946.136 669.301 953.914 654.983 955.296C605.553 960.203 555.892 962.411 506.222 961.911C504.096 961.883 501.17 960.95 499.597 961.063C492.182 961.592 485.593 961.166 478.291 960.69C469.359 960.673 460.393 960.783 451.461 960.883C448.054 960.922 444.383 960.024 441.347 960.132C419.04 960.925 397.289 958.092 375.184 955.912C346.858 953.119 319.097 951.791 292.102 941.786C273.582 934.923 280.362 926.323 277.134 922.708C272.729 921.613 267.145 922.33 262.735 921.838C258.231 921.335 252.083 920.71 247.776 919.898L247.712 919.156L248.567 919.194C254.87 919.503 262.643 921.289 269.034 921.36C294.577 921.643 320.253 921.398 345.797 921.498C340.96 923.433 317.917 921.135 311.504 922.289C311.238 922.628 310.972 922.968 310.706 923.308C310.483 925.678 311.337 929.103 313.227 930.624C331.682 945.48 361.1 944.9 383.77 948.575C393.697 950.184 404.265 951.267 414.185 951.438C416.176 951.473 417.88 952.498 419.83 952.597C425.618 951.887 431.757 953.278 437.065 953.393C468.32 954.068 499.485 956.128 530.757 956.082C575.169 955.581 619.501 952.174 663.469 945.884C680.468 943.461 700.083 941.123 715.797 933.369C719.237 931.672 721.145 926.34 723.762 923.202L723.247 922.154C715.423 921.376 703.092 922.44 694.888 922.007C692.34 921.872 687.719 922.286 685.516 921.788C700.087 921.634 719.903 922.322 733.67 921.432Z"/><defs><linearGradient id="gradient_17" gradientUnits="userSpaceOnUse" x1="520.00824" y1="946.37927" x2="576.59131" y2="917.80811"><stop offset="0" stop-color="#373838"/><stop offset="1" stop-color="#6A6B6C"/></linearGradient></defs><path fill="url(#gradient_17)" d="M459.404 927.683C463.633 925.527 492.494 926.914 496.774 924.571L496.759 924.521L494.715 924.452L494.85 923.983C498.024 922.526 526.435 923.197 531.298 924.151L529.026 924.158C531.417 924.513 534.615 924.669 536.672 925.838C541.243 923.524 547.957 924.497 552.69 925.917C554.811 926.67 557.144 926.11 559.223 926.393C564.881 927.161 578.319 927.526 582.808 930.468L583.287 931.444C581.144 936.358 562.924 935.543 558.009 936.704C556.501 937.06 550.909 937.157 549.994 937.648C553.349 939.929 557.185 938.275 560.655 938.731L561.759 940.286C566.922 938.105 573.034 936.67 578.634 937.677L578.495 938.666C575.913 939.319 573.781 940.598 570.997 939.434L570.354 939.897C569.875 939.687 570.156 939.785 569.497 939.647C569.928 940.907 569.603 940.342 570.699 941.214C572.564 940.616 577.541 940.266 579.545 940.496L579.303 941.303C576.191 943.341 552.73 942.58 547.34 944.276L548.483 944.799C547.122 945.633 543.614 944.823 541.834 944.557L541.875 945.002L544.063 945.825C541.91 946.324 537.799 945.145 535.399 945.38C533.487 945.568 529.81 947 528.013 946.815C523.36 946.336 520.62 944.98 515.824 945.618C508.345 946.613 499.225 946.104 491.574 945.912C480.892 945.644 467.274 945.809 456.68 944.809L456.837 944.53C458.197 944.048 457.567 944.01 458.82 944.236C457.576 944.094 457.517 943.732 456.35 942.833L455.055 943.46C454.478 943.342 453.859 943.243 453.397 942.915C452.269 942.113 453.21 943.438 450.745 943.655L450.299 942.722L450.783 941.918C454.37 940.864 455.288 939.413 459.293 939.6C459.276 939.451 459.259 939.302 459.242 939.153L459.12 938.284L460.043 938.2C460.124 936.998 460.048 937.149 460.744 936.087C459.077 936.355 442.865 933.428 441.068 932.566L440.811 931.557L441.597 930.541C449.245 928.507 450.731 927.764 459.404 927.683Z"/><path fill="#838585" d="M500.128 936.944L507.247 937.013C512.445 937.213 546.758 938.5 549.994 937.648C553.349 939.929 557.185 938.275 560.655 938.731L561.759 940.286C566.922 938.105 573.034 936.67 578.634 937.677L578.495 938.666C575.913 939.319 573.781 940.598 570.997 939.434L570.354 939.897C569.875 939.687 570.156 939.785 569.497 939.647C569.928 940.907 569.603 940.342 570.699 941.214C572.564 940.616 577.541 940.266 579.545 940.496L579.303 941.303C576.191 943.341 552.73 942.58 547.34 944.276L548.483 944.799C547.122 945.633 543.614 944.823 541.834 944.557L541.875 945.002L544.063 945.825C541.91 946.324 537.799 945.145 535.399 945.38C533.487 945.568 529.81 947 528.013 946.815C523.36 946.336 520.62 944.98 515.824 945.618C508.345 946.613 499.225 946.104 491.574 945.912C480.892 945.644 467.274 945.809 456.68 944.809L456.837 944.53C458.197 944.048 457.567 944.01 458.82 944.236C457.576 944.094 457.517 943.732 456.35 942.833L455.055 943.46C454.478 943.342 453.859 943.243 453.397 942.915C452.269 942.113 453.21 943.438 450.745 943.655L450.299 942.722L450.783 941.918C454.37 940.864 455.288 939.413 459.293 939.6C459.276 939.451 459.259 939.302 459.242 939.153L459.12 938.284L460.043 938.2C464.798 937.893 471.157 938.104 476.101 938C484.115 937.778 492.125 937.426 500.128 936.944Z"/><defs><linearGradient id="gradient_18" gradientUnits="userSpaceOnUse" x1="481.10709" y1="920.33655" x2="447.85788" y2="942.35553"><stop offset="0" stop-color="#38393C"/><stop offset="1" stop-color="#696B6B"/></linearGradient></defs><path fill="url(#gradient_18)" d="M460.043 938.2C460.124 936.998 460.048 937.149 460.744 936.087C459.077 936.355 442.865 933.428 441.068 932.566L440.811 931.557L441.597 930.541C449.245 928.507 450.731 927.764 459.404 927.683L457.568 928.751L457.486 929.22C469.36 929.135 483.657 929.052 495.462 929.61L495.729 931.222C494.384 932.105 490.185 931.951 488.024 932.091C489.022 932.488 493.638 933.012 494.843 932.981C498.716 932.88 497.664 934.366 500.128 936.944C492.125 937.426 484.115 937.778 476.101 938C471.157 938.104 464.798 937.893 460.043 938.2Z"/><path fill="#616565" d="M459.404 927.683C463.633 925.527 492.494 926.914 496.774 924.571L496.759 924.521L494.715 924.452L494.85 923.983C498.024 922.526 526.435 923.197 531.298 924.151L529.026 924.158C531.417 924.513 534.615 924.669 536.672 925.838C541.243 923.524 547.957 924.497 552.69 925.917L544.611 926.806C544.928 926.842 548.921 927.303 548.933 927.297C547.125 928.551 508.602 929.24 503.451 929.487L495.462 929.61C483.657 929.052 469.36 929.135 457.486 929.22L457.568 928.751L459.404 927.683Z"/><path fill="#313232" d="M495.462 929.61L503.451 929.487C505.967 934.185 512.968 929.983 517.376 931.504L517.524 931.994L517.007 932.039C515.992 932.135 514.278 932.308 513.385 932.719C510.755 933.928 507.376 931.913 505.814 933.887C506.315 935.46 506.455 935.627 507.247 937.013L500.128 936.944C497.664 934.366 498.716 932.88 494.843 932.981C493.638 933.012 489.022 932.488 488.024 932.091C490.185 931.951 494.384 932.105 495.729 931.222L495.462 929.61Z"/><path fill="#68160A" d="M245.707 572.053C252.004 568.804 275.087 565.38 283.074 563.889C283.891 570.001 286.17 575.473 286.138 581.456L287.474 581.771L287.663 582.385C289.049 586.751 290.761 591.458 292.244 595.828L293.078 596.412L292.733 596.765C293.675 598.974 297.828 609.501 299.218 610.433C301.312 612.228 313.06 634.094 313.153 636.703C308.058 636.46 302.221 636.132 297.182 637.067L297.049 637.356C297.491 643.446 297.92 648.433 298.773 654.484L298.878 655.629C299.868 660.908 300.753 665.922 302.13 671.123L302.687 673.149C304.353 680.575 306.879 687.515 309.433 694.662C286.994 692.804 268.704 692.3 246.57 697.646C243.711 698.337 240.223 698.446 237.689 699.689C237.316 701.159 237.592 701.98 237.853 703.467L237.065 703.139L236.74 701.195C232.197 701.316 227.651 701.271 223.111 701.06C216.721 700.797 163.639 696.191 160.828 693.139C160.007 689.507 163.607 680.574 164.904 676.734C173.864 650.195 184.447 622.819 202.019 600.693C206.632 594.884 212.01 590.699 217.392 585.612C222.399 581.871 231.945 579.407 237.271 575.248C238.215 574.511 244.009 573.864 245.707 572.053Z"/><path fill="#741B0E" d="M292.733 596.765C293.675 598.974 297.828 609.501 299.218 610.433C301.312 612.228 313.06 634.094 313.153 636.703C308.058 636.46 302.221 636.132 297.182 637.067L297.049 637.356C297.491 643.446 297.92 648.433 298.773 654.484C275.271 663.486 253.576 663.113 229.146 664.878C223.388 665.294 212.15 668.112 207.175 668.055C215.585 660.816 220.096 652.368 226.844 643.895C247.529 617.922 262.101 607.311 292.733 596.765Z"/><path fill="#94300E" d="M297.049 637.356C293.776 638.218 284.429 643.226 279.853 644.829C264.726 650.13 248.732 652.097 232.813 653.39C233.556 651.789 244.158 651.049 246.748 650.711C263.035 648.585 279.384 645.037 293.559 636.36C297.935 633.681 301.341 628.87 305.572 626.075L306.05 626.349L305.759 627.493L306.015 627.785L306.849 627.885C308.736 629.945 309.91 633.128 311.277 635.739C310.622 635.957 299.781 635.759 297.497 635.947L297.182 637.067L297.049 637.356Z"/><defs><linearGradient id="gradient_19" gradientUnits="userSpaceOnUse" x1="232.129" y1="621.74628" x2="266.871" y2="641.25372"><stop offset="0" stop-color="#822416"/><stop offset="1" stop-color="#A24521"/></linearGradient></defs><path fill="url(#gradient_19)" d="M207.101 669.023L204.874 669.261L204.442 668.889C209.91 664.293 218.846 652.517 223.115 646.165C240.177 620.775 261.761 602.919 292.244 595.828L293.078 596.412L292.733 596.765C262.101 607.311 247.529 617.922 226.844 643.895C220.096 652.368 215.585 660.816 207.175 668.055L207.101 669.023Z"/><path fill="#94300E" d="M302.687 673.149C290.056 685.149 231.733 677.264 213.003 678.063C200.07 678.615 191.237 682.114 179.86 683.068C219.262 670.605 251.731 684.181 290.345 674.706C294.258 673.745 298.204 671.504 302.13 671.123L302.687 673.149Z"/><path fill="#94300E" d="M298.773 654.484L298.878 655.629C276.545 665.294 255.554 664.194 232.104 665.717C223.805 666.256 215.214 668.151 207.101 669.023L207.175 668.055C212.15 668.112 223.388 665.294 229.146 664.878C253.576 663.113 275.271 663.486 298.773 654.484Z"/><path fill="#741B0E" d="M742.325 562.028C750.381 564.224 761.03 567.598 768.573 569.51C798.667 577.139 816.711 587.168 832.67 614.568C842.827 632.006 848.53 649.308 855.414 668.237C857.26 673.313 867.09 688.411 866.166 692.069C863.341 692.785 860.652 692.761 857.817 693.18C837.352 696.212 817.227 701.101 796.718 703.981C793.747 704.398 788.232 704.148 785.823 705.006L785.48 706.263C786.926 708.787 790.343 707.352 793.289 707.657C791.023 708.24 787.207 709.084 785.117 708.017C784.814 705.951 784.566 703.788 783.276 702.065C779.412 696.907 743.444 693.82 736.11 693.011C733.526 689.155 722.636 688.722 719.844 684.465C720.683 683.449 720.159 683.862 721.704 683.554L720.055 683.335C719.888 679.647 723.498 673.445 723.497 669.336C723.496 666.957 723.897 666.857 725.821 666.381L724.022 665.459L723.426 665.521C724.66 657.852 725.072 650.085 726.192 642.407L726.789 642.082L727.8 641.173C732.67 642.353 744.112 649.843 752.884 652.303C774.146 658.264 794.158 658.727 815.648 662.314L816.869 662.489C814.694 658.167 807.551 652.668 804.374 648.524C788.361 627.63 772.36 605.702 746.163 597.16C742.301 595.901 738.545 594.217 734.517 593.335C734.109 591.973 737.601 582.015 738.243 579.567L738.261 579.423C740.353 577.019 743.197 580.236 747.159 579.651C744.325 578.608 741.857 578.051 738.868 577.689L742.325 562.028Z"/><path fill="#741B0E" d="M738.243 579.567L738.261 579.423C740.353 577.019 743.197 580.236 747.159 579.651C751.981 580.715 757.294 583.325 761.689 585.203C779.867 592.973 798.722 610.119 808.866 627.121C815.62 638.442 819.704 647.282 827.535 658.894C830.283 663.02 833.264 666.985 836.464 670.771C837.597 672.12 841.611 676.376 842.217 677.497L841.567 678.269C840.086 678.772 824.718 675.464 821.614 674.981C800.763 671.738 781.206 677.355 760.33 674.481C753.361 673.555 746.493 671.986 739.814 669.795C737.079 668.877 725.918 664.274 724.022 665.459L723.426 665.521C724.66 657.852 725.072 650.085 726.192 642.407L726.789 642.082L727.8 641.173C732.67 642.353 744.112 649.843 752.884 652.303C774.146 658.264 794.158 658.727 815.648 662.314L816.869 662.489C814.694 658.167 807.551 652.668 804.374 648.524C788.361 627.63 772.36 605.702 746.163 597.16C742.301 595.901 738.545 594.217 734.517 593.335C734.109 591.973 737.601 582.015 738.243 579.567Z"/><path fill="#94300E" d="M738.243 579.567L738.261 579.423C740.353 577.019 743.197 580.236 747.159 579.651C751.981 580.715 757.294 583.325 761.689 585.203C779.867 592.973 798.722 610.119 808.866 627.121C815.62 638.442 819.704 647.282 827.535 658.894C830.283 663.02 833.264 666.985 836.464 670.771C837.597 672.12 841.611 676.376 842.217 677.497L841.567 678.269C841.493 678.119 841.419 677.969 841.345 677.818C836.166 671.49 829.743 664.946 825.448 657.972C815.918 642.494 808.137 628.475 795.975 614.754C779.95 596.675 761.51 585.827 738.243 579.567Z"/><path fill="#94300E" d="M726.789 642.082L727.8 641.173C732.67 642.353 744.112 649.843 752.884 652.303C774.146 658.264 794.158 658.727 815.648 662.314L816.869 662.489L817.334 663.037C814.431 662.942 803.125 661.257 799.281 660.882C777.343 658.743 746.607 656.807 726.875 646.209L727.185 645.703C728.579 645.639 733.594 647.928 735.507 648.606L735.93 648.317C733.452 647.083 727.395 645.478 726.628 643.473C727.529 643.593 728.43 643.708 729.332 643.818L726.789 642.082Z"/><path fill="#94300E" d="M724.022 665.459C725.918 664.274 737.079 668.877 739.814 669.795C746.493 671.986 753.361 673.555 760.33 674.481C781.206 677.355 800.763 671.738 821.614 674.981C824.718 675.464 840.086 678.772 841.567 678.269L841.786 679.015C844.284 679.511 845.358 680.079 847.732 681.065L848.098 681.962C846.925 682.142 843.962 679.826 841.593 679.516C836.933 678.875 832.328 677.415 827.696 676.61C811.707 673.834 796.288 675.454 780.303 676.778C760.924 678.382 743.515 674.318 725.821 666.381L724.022 665.459Z"/><path fill="#550D0E" d="M497.394 821.583C497.225 822.692 496.757 823.658 495.982 824.487C476.258 845.611 455.376 864.851 428.974 877.394C416.961 883.1 406.37 887.339 394.765 893.368C388.785 896.474 374.545 907.735 369.801 908.267C369.245 908.043 368.674 907.765 368.334 907.229C347.596 874.506 324.639 842.181 312.845 804.801C311.596 800.841 309.572 795.209 309.937 791.347L310.886 790.636C333.451 802.329 353.219 810.888 378.744 814.713L381.46 815.215L395.748 817.031C398.201 817.253 401.501 817.462 403.874 817.796L409.04 818.206C410.978 818.371 414.417 818.559 416.206 818.94C422.456 819.205 428.84 819.793 434.997 820.016C437.154 820.086 439.985 820.088 442.057 820.424C460.178 820.348 479.02 821.507 497.394 821.583Z"/><path fill="#5E100D" d="M434.997 820.016C437.154 820.086 439.985 820.088 442.057 820.424L436.857 820.729C424.955 834.359 408.907 844.912 394.081 854.985C390.723 857.266 383.904 863.653 381.006 865.251C381.161 863.655 380.962 864.435 382.149 862.983L381.898 862.402C383.595 861.357 391.129 855.311 393.48 853.616C404.333 845.793 428.454 831.472 434.997 820.016Z"/><path fill="#68160A" d="M381.006 865.251C379.41 863.648 376.393 857.965 375.272 855.892C367.72 841.921 361.028 827.221 358.266 811.46L358.714 811.122C362.046 823.781 373.568 853.077 381.898 862.402L382.149 862.983C380.962 864.435 381.161 863.655 381.006 865.251Z"/><path fill="#5E100D" d="M409.04 818.206C410.978 818.371 414.417 818.559 416.206 818.94C409.273 819.483 407.271 824.761 402.768 828.736C399.584 831.545 392.197 844.137 389.596 845.506L388.943 845.187C388.701 843.875 388.56 843.848 389.053 842.65L389.992 842.349C393.414 835.996 403.982 825.222 408.935 819.421C408.97 819.016 409.005 818.611 409.04 818.206Z"/><path fill="#5E100D" d="M378.744 814.713L381.46 815.215C380.15 819.03 385.364 829.843 386.52 834.498C384.181 833.086 379.653 818.059 378.744 814.713Z"/><path fill="#68160A" d="M395.748 817.031C398.201 817.253 401.501 817.462 403.874 817.796C399.865 818.224 401.46 819.43 397.823 823.007L397.08 822.798C396.032 820.84 396.023 819.246 395.748 817.031Z"/><path fill="#550D0E" d="M658.611 811.518C687.263 805.016 705.988 795.108 730.336 779.54C729.648 782.532 724.412 783.283 722.856 785.584C723.143 786.4 723.447 787.21 723.769 788.013C718.805 796.871 711.885 805.19 706.485 813.702C688.834 841.527 669.826 869.568 659.909 901.272C659.196 903.553 658.314 908.37 656.326 909.4C651.118 907.42 642.83 902.306 637.878 899.273C604.46 878.804 566.679 863.583 540.046 833.743C536.855 830.167 532.818 826.207 530.156 822.257C531.766 822.21 534.715 822.396 535.878 821.718C542.413 821.647 548.948 821.697 555.481 821.867L563.803 821.641C569.846 821.532 575.924 821.139 581.962 820.807C583.95 820.57 586.185 820.57 588.205 820.516C602.257 819.648 617.227 818.527 631.141 816.372L633.393 816.116C635.741 815.903 639.511 815.21 641.943 814.834L644.119 814.334C647.761 813.882 651.235 813.055 654.817 812.27L658.611 811.518Z"/><path fill="#550D0E" d="M644.119 814.334C647.761 813.882 651.235 813.055 654.817 812.27C652.002 821.903 648.016 828.608 643.657 837.578C641.775 841.45 639.182 847.626 637.115 851.139C627.842 843.469 592.259 827.773 588.205 820.516C602.257 819.648 617.227 818.527 631.141 816.372L633.393 816.116C635.741 815.903 639.511 815.21 641.943 814.834L644.119 814.334Z"/><path fill="#68160A" d="M641.943 814.834L644.119 814.334C642.428 818.971 640.583 823.111 638.597 827.613C639.589 823.972 641.33 818.35 641.943 814.834Z"/><path fill="#5E100D" d="M631.141 816.372L633.393 816.116C632.514 821.239 635.766 820.746 636.697 824.402C633.795 823.507 632.018 819.055 631.141 816.372Z"/><path fill="#68160A" d="M692.855 801.308C679.44 820.386 656.181 867.925 651.562 890.203L651.398 890.973L651.306 891.436C633.998 880.278 614.85 871.424 597.713 859.859C584.347 850.838 573.071 840.557 561.97 828.926C560.175 827.045 556.613 824.048 555.481 821.867L563.803 821.641L561.34 822.237C574.902 843.932 608.089 859.486 629.752 872.313C635.19 875.533 641.541 880.168 647.003 882.841L647.791 882.644C649.748 877.822 649.968 872.38 651.947 867.609C654.409 861.673 683.409 805.256 685.454 804.304C687.845 803.19 690.418 802.341 692.855 801.308Z"/><path fill="#5E100D" d="M654.817 812.27L658.611 811.518C656.934 817.181 654.24 822.153 652.306 827.5C648.449 838.166 643.613 848.414 639.774 859.013C628.293 849.762 616.913 843.889 604.461 836.264C599.002 832.922 586.036 825.331 581.962 820.807C583.95 820.57 586.185 820.57 588.205 820.516C592.259 827.773 627.842 843.469 637.115 851.139C639.182 847.626 641.775 841.45 643.657 837.578C648.016 828.608 652.002 821.903 654.817 812.27Z"/><path fill="#5E100D" d="M778.925 724.511L779.548 724.714C804.412 732.522 845.833 720 868.653 708.687C865.992 715.061 856.844 726.852 852.423 732.559C836.345 753.066 818.197 771.863 798.268 788.652C783.544 801.201 766.251 811.843 750.291 822.776C746.664 825.26 743.126 828.001 739.418 830.329C726.149 838.503 712.418 845.903 698.295 852.493C695.122 853.963 688.068 857.842 684.968 857.809C684.43 851.328 722.422 801.993 728.451 792.102C731.57 786.986 739.685 777.232 741.239 771.555C744.151 768.321 751.367 762.163 755.144 758.15C766.003 746.613 771.163 737.92 778.925 724.511Z"/><path fill="#550D0E" d="M309.496 789.813L307.687 789.88L307.069 790.607C307.852 793.597 307.616 796.398 307.915 799.403C309.071 812.382 315.162 822.884 320.669 834.284C322.983 839.075 324.322 844.023 327.838 848.612C328.76 849.817 329.911 853.268 330.592 854.859L329.973 855.068C325.006 854.384 317.484 848.626 312.673 846.426C272.75 828.171 236.96 797.61 206.268 766.731C199.181 759.601 163.495 719.5 161.736 711.976C168.11 713.646 172.584 716.336 178.168 718.163C182.156 719.467 188.952 720.47 192.992 721.893C200.767 724.632 238.119 731.974 243.102 729.248L241.808 728.916L240.846 726.59L241.253 726.071C242.496 726.046 244.873 725.795 245.778 726.281C246.519 727.93 246.616 728.08 248.109 729.094C264.154 756.91 282.144 773.409 309.496 789.813Z"/><path fill="#550D0E" d="M518.883 821.734L528.136 821.662L528.68 822.173C527.709 822.947 523.317 822.636 521.617 822.634C537.481 840.286 555.493 856.088 575.698 868.475C578.991 870.494 590.033 876.052 591.356 879.355C553.202 882.522 523.596 883.452 485.44 881.22C475.768 880.563 466.121 879.574 456.516 878.256C455.081 878.07 445.469 876.545 444.865 876.547L444.43 876.553L443.998 876.071L444.2 875.093C448.752 871.6 455.473 868.577 459.844 865.245C466.843 860.31 473.501 853.665 480.093 848.442C485.993 843.768 499.939 825.282 505.333 822.996L503.095 822.468C505.317 821.428 516.426 823.002 518.883 821.734Z"/><path fill="#741B0E" d="M921.944 520.051C917.131 524.482 912.974 532.346 908.259 536.968C888.289 556.541 862.528 580.618 833.164 582.772C824.753 583.39 803.746 577.922 795.308 576.129L795.133 575.634C795.676 575.447 796.22 575.259 796.764 575.072C796.051 574.609 795.868 574.673 795.031 574.534L795.3 573.996C798.073 573.583 797.013 574.424 799.083 574.454C813.471 575.155 824.906 571.08 838.152 566.775C860.943 559.369 879.378 543.221 899.247 530.282C902.714 528.024 917.611 518.951 917.766 515.543C915.229 511.306 901.671 502.613 897.096 499.134C889.913 493.671 882.188 487.413 874.838 482.256C869.889 478.841 864.825 475.597 859.655 472.527C840.763 461.477 818.633 452.362 796.624 450.868C790.688 450.465 788.458 449.116 782.6 451.132L781.816 450.722L781.997 450.364C788.205 449.569 800.539 441.552 805.92 441.043C842.083 437.625 881.498 466.243 904.018 489.42C906.777 492.231 909.431 495.144 911.974 498.152C914.542 501.236 918.893 507.871 921.932 509.799L921.944 520.051Z"/><path fill="#68160A" d="M872.667 695.784L872.421 695.309C854.1 659.123 847.19 611.385 813.71 585.498C812.11 584.26 811.45 582.539 809.38 581.881C819.16 582.281 826.855 584.011 834.206 590.537C858.54 612.186 867.529 646.97 876.9 676.978C883.156 697.011 883.386 697.094 864.298 705.138C840.542 715.148 806.431 726.099 780.661 721.218C782.938 716.417 783.903 713.199 785.117 708.017C787.207 709.084 791.023 708.24 793.289 707.657C797.687 707.855 804.368 706.61 808.875 706.047C830.488 703.346 850.841 695.103 872.667 695.784Z"/></svg>